<svg width="186" height="80" viewBox="0 0 186 80" fill="none" xmlns="http://www.w3.org/2000/svg">
<g filter="url(#filter0_ddd_409_10820)">
<rect x="11" y="0.5" width="163.5" height="56" rx="6.5" stroke="#484848"/>
<path d="M61.7164 37.9772C61.328 37.7188 60.9838 37.3996 60.697 37.0317C60.3815 36.6519 60.0891 36.2535 59.8216 35.8386C59.1937 34.9187 58.7013 33.9134 58.3595 32.8534C57.9488 31.6222 57.75 30.442 57.75 29.2878C57.75 27.9986 58.0289 26.8733 58.5743 25.9277C58.9786 25.1886 59.5731 24.571 60.2962 24.1387C60.997 23.7034 61.8022 23.4652 62.627 23.4492C62.9157 23.4492 63.2266 23.4911 63.5565 23.5711C63.7936 23.6382 64.0823 23.7441 64.435 23.8758C64.8838 24.0488 65.1307 24.1547 65.2144 24.1806C65.4773 24.2766 65.6983 24.3185 65.8719 24.3185C66.0036 24.3185 66.1896 24.2766 66.4007 24.2126C66.5195 24.1707 66.7436 24.0968 67.0644 23.9596C67.382 23.8438 67.632 23.7447 67.8308 23.6708C68.1355 23.5809 68.4304 23.4978 68.6933 23.456C69.0049 23.4068 69.3212 23.3938 69.6358 23.4172C70.181 23.4528 70.718 23.5684 71.2296 23.7601C72.0663 24.0968 72.7428 24.6226 73.2464 25.3699C73.0336 25.5011 72.8338 25.6524 72.6499 25.8218C72.2495 26.1768 71.9084 26.5935 71.6396 27.0561C71.2883 27.6884 71.1062 28.4007 71.1108 29.124C71.1238 30.0123 71.3515 30.7948 71.8003 31.4714C72.1303 31.9728 72.5591 32.4016 73.0605 32.7315C73.3172 32.9045 73.5382 33.0233 73.75 33.1034C73.6509 33.4112 73.545 33.7091 73.42 34.0046C73.1366 34.6673 72.7931 35.3026 72.3938 35.9026C72.038 36.4191 71.7591 36.8039 71.5473 37.06C71.2173 37.4509 70.8997 37.7495 70.5789 37.9576C70.2262 38.1915 69.8094 38.3165 69.3859 38.3165C69.099 38.3275 68.8122 38.2928 68.5363 38.2136C68.2993 38.1336 68.0647 38.0468 67.8339 37.9477C67.5939 37.8375 67.3464 37.7443 67.0933 37.6688C66.4676 37.5081 65.8116 37.5071 65.1855 37.6657C64.9288 37.7396 64.6819 37.8258 64.4381 37.9317C64.0952 38.0758 63.8674 38.1724 63.7357 38.2136C63.4728 38.2906 63.2001 38.3386 62.9243 38.3546C62.4977 38.3546 62.1 38.2327 61.706 37.9859L61.7164 37.9772ZM67.3432 22.8237C66.7855 23.1026 66.253 23.2214 65.7241 23.1826C65.641 22.6501 65.7241 22.1053 65.9452 21.5088C66.1333 21.0034 66.4113 20.5362 66.7658 20.1298C67.1401 19.7019 67.5943 19.3512 68.1029 19.0974C68.6447 18.8185 69.1612 18.6677 69.6549 18.6455C69.7189 19.2033 69.6549 19.7518 69.4499 20.3446C69.2602 20.8687 68.9827 21.3567 68.6293 21.7876C68.2685 22.2161 67.8259 22.5681 67.3272 22.8231L67.3432 22.8237Z" fill="black"/>
<path d="M85.9254 34.5H84.4482L88.7209 22.8636H90.1754L94.4482 34.5H92.9709L89.4936 24.7045H89.4027L85.9254 34.5ZM86.4709 29.9545H92.4254V31.2045H86.4709V29.9545ZM96.0788 37.7727V25.7727H97.3743V27.1591H97.5334C97.6319 27.0076 97.7682 26.8144 97.9425 26.5795C98.1205 26.3409 98.3743 26.1288 98.7038 25.9432C99.0372 25.7538 99.4879 25.6591 100.056 25.6591C100.791 25.6591 101.439 25.8428 101.999 26.2102C102.56 26.5777 102.997 27.0985 103.312 27.7727C103.626 28.447 103.783 29.2424 103.783 30.1591C103.783 31.0833 103.626 31.8845 103.312 32.5625C102.997 33.2367 102.562 33.7595 102.005 34.1307C101.448 34.4981 100.806 34.6818 100.079 34.6818C99.5182 34.6818 99.0694 34.589 98.7322 34.4034C98.3951 34.214 98.1357 34 97.9538 33.7614C97.772 33.5189 97.6319 33.3182 97.5334 33.1591H97.4197V37.7727H96.0788ZM97.397 30.1364C97.397 30.7955 97.4936 31.3769 97.6868 31.8807C97.88 32.3807 98.1622 32.7727 98.5334 33.0568C98.9046 33.3371 99.3591 33.4773 99.897 33.4773C100.458 33.4773 100.925 33.3295 101.3 33.0341C101.679 32.7348 101.963 32.3333 102.153 31.8295C102.346 31.322 102.442 30.7576 102.442 30.1364C102.442 29.5227 102.348 28.9697 102.158 28.4773C101.973 27.9811 101.691 27.589 101.312 27.3011C100.937 27.0095 100.465 26.8636 99.897 26.8636C99.3516 26.8636 98.8932 27.0019 98.522 27.2784C98.1508 27.5511 97.8705 27.9337 97.6811 28.4261C97.4917 28.9148 97.397 29.4848 97.397 30.1364ZM105.829 37.7727V25.7727H107.124V27.1591H107.283C107.382 27.0076 107.518 26.8144 107.692 26.5795C107.871 26.3409 108.124 26.1288 108.454 25.9432C108.787 25.7538 109.238 25.6591 109.806 25.6591C110.541 25.6591 111.189 25.8428 111.749 26.2102C112.31 26.5777 112.747 27.0985 113.062 27.7727C113.376 28.447 113.533 29.2424 113.533 30.1591C113.533 31.0833 113.376 31.8845 113.062 32.5625C112.747 33.2367 112.312 33.7595 111.755 34.1307C111.198 34.4981 110.556 34.6818 109.829 34.6818C109.268 34.6818 108.819 34.589 108.482 34.4034C108.145 34.214 107.886 34 107.704 33.7614C107.522 33.5189 107.382 33.3182 107.283 33.1591H107.17V37.7727H105.829ZM107.147 30.1364C107.147 30.7955 107.244 31.3769 107.437 31.8807C107.63 32.3807 107.912 32.7727 108.283 33.0568C108.655 33.3371 109.109 33.4773 109.647 33.4773C110.208 33.4773 110.675 33.3295 111.05 33.0341C111.429 32.7348 111.713 32.3333 111.903 31.8295C112.096 31.322 112.192 30.7576 112.192 30.1364C112.192 29.5227 112.098 28.9697 111.908 28.4773C111.723 27.9811 111.441 27.589 111.062 27.3011C110.687 27.0095 110.215 26.8636 109.647 26.8636C109.102 26.8636 108.643 27.0019 108.272 27.2784C107.901 27.5511 107.621 27.9337 107.431 28.4261C107.242 28.9148 107.147 29.4848 107.147 30.1364ZM116.92 22.8636V34.5H115.579V22.8636H116.92ZM123.035 34.6818C122.194 34.6818 121.469 34.4962 120.859 34.125C120.253 33.75 119.785 33.2273 119.455 32.5568C119.129 31.8826 118.967 31.0985 118.967 30.2045C118.967 29.3106 119.129 28.5227 119.455 27.8409C119.785 27.1553 120.243 26.6212 120.83 26.2386C121.421 25.8523 122.111 25.6591 122.898 25.6591C123.353 25.6591 123.802 25.7348 124.245 25.8864C124.688 26.0379 125.092 26.2841 125.455 26.625C125.819 26.9621 126.109 27.4091 126.325 27.9659C126.54 28.5227 126.648 29.2083 126.648 30.0227V30.5909H119.921V29.4318H125.285C125.285 28.9394 125.186 28.5 124.989 28.1136C124.796 27.7273 124.52 27.4223 124.16 27.1989C123.804 26.9754 123.383 26.8636 122.898 26.8636C122.364 26.8636 121.902 26.9962 121.512 27.2614C121.126 27.5227 120.828 27.8636 120.62 28.2841C120.412 28.7045 120.308 29.1553 120.308 29.6364V30.4091C120.308 31.0682 120.421 31.6269 120.648 32.0852C120.879 32.5398 121.2 32.8864 121.609 33.125C122.018 33.3598 122.493 33.4773 123.035 33.4773C123.387 33.4773 123.705 33.428 123.989 33.3295C124.277 33.2273 124.525 33.0758 124.734 32.875C124.942 32.6705 125.103 32.4167 125.217 32.1136L126.512 32.4773C126.376 32.9167 126.147 33.303 125.825 33.6364C125.503 33.9659 125.105 34.2235 124.631 34.4091C124.158 34.5909 123.626 34.6818 123.035 34.6818Z" fill="black"/>
</g>
<defs>
<filter id="filter0_ddd_409_10820" x="0.482759" y="0" width="184.534" height="79.5388" filterUnits="userSpaceOnUse" color-interpolation-filters="sRGB">
<feFlood flood-opacity="0" result="BackgroundImageFix"/>
<feColorMatrix in="SourceAlpha" type="matrix" values="0 0 0 0 0 0 0 0 0 0 0 0 0 0 0 0 0 0 127 0" result="hardAlpha"/>
<feOffset dy="2.76726"/>
<feGaussianBlur stdDeviation="1.1069"/>
<feColorMatrix type="matrix" values="0 0 0 0 0 0 0 0 0 0 0 0 0 0 0 0 0 0 0.0196802 0"/>
<feBlend mode="normal" in2="BackgroundImageFix" result="effect1_dropShadow_409_10820"/>
<feColorMatrix in="SourceAlpha" type="matrix" values="0 0 0 0 0 0 0 0 0 0 0 0 0 0 0 0 0 0 127 0" result="hardAlpha"/>
<feOffset dy="6.6501"/>
<feGaussianBlur stdDeviation="2.66004"/>
<feColorMatrix type="matrix" values="0 0 0 0 0 0 0 0 0 0 0 0 0 0 0 0 0 0 0.0282725 0"/>
<feBlend mode="normal" in2="effect1_dropShadow_409_10820" result="effect2_dropShadow_409_10820"/>
<feColorMatrix in="SourceAlpha" type="matrix" values="0 0 0 0 0 0 0 0 0 0 0 0 0 0 0 0 0 0 127 0" result="hardAlpha"/>
<feOffset dy="12.5216"/>
<feGaussianBlur stdDeviation="5.00862"/>
<feColorMatrix type="matrix" values="0 0 0 0 0 0 0 0 0 0 0 0 0 0 0 0 0 0 0.035 0"/>
<feBlend mode="normal" in2="effect2_dropShadow_409_10820" result="effect3_dropShadow_409_10820"/>
<feBlend mode="normal" in="SourceGraphic" in2="effect3_dropShadow_409_10820" result="shape"/>
</filter>
</defs>
</svg>
