<svg width="186" height="80" viewBox="0 0 186 80" fill="none" xmlns="http://www.w3.org/2000/svg">
<g filter="url(#filter0_ddd_409_10813)">
<rect x="11.5" y="0.5" width="163.5" height="56" rx="6.5" stroke="#484848"/>
<path d="M74.3243 25.8885H73.2503V25.8332H61.2503V31.1665H68.7857C67.6863 34.2712 64.7323 36.4998 61.2503 36.4998C56.8323 36.4998 53.2503 32.9178 53.2503 28.4998C53.2503 24.0818 56.8323 20.4998 61.2503 20.4998C63.2897 20.4998 65.145 21.2692 66.5577 22.5258L70.329 18.7545C67.9477 16.5352 64.7623 15.1665 61.2503 15.1665C53.887 15.1665 47.917 21.1365 47.917 28.4998C47.917 35.8632 53.887 41.8332 61.2503 41.8332C68.6137 41.8332 74.5837 35.8632 74.5837 28.4998C74.5837 27.6058 74.4917 26.7332 74.3243 25.8885Z" fill="#FFC107"/>
<path d="M49.4541 22.2938L53.8348 25.5065C55.0201 22.5718 57.8908 20.4998 61.2501 20.4998C63.2894 20.4998 65.1448 21.2692 66.5574 22.5258L70.3288 18.7545C67.9474 16.5352 64.7621 15.1665 61.2501 15.1665C56.1288 15.1665 51.6874 18.0578 49.4541 22.2938Z" fill="#FF3D00"/>
<path d="M61.2499 41.8333C64.6939 41.8333 67.8232 40.5153 70.1892 38.372L66.0625 34.88C64.6789 35.9322 62.9882 36.5013 61.2499 36.5C57.7819 36.5 54.8372 34.2886 53.7279 31.2026L49.3799 34.5526C51.5865 38.8706 56.0679 41.8333 61.2499 41.8333Z" fill="#4CAF50"/>
<path d="M74.324 25.8888H73.25V25.8335H61.25V31.1668H68.7853C68.2595 32.6444 67.3122 33.9356 66.0607 34.8808L66.0627 34.8795L70.1893 38.3715C69.8973 38.6368 74.5833 35.1668 74.5833 28.5002C74.5833 27.6062 74.4913 26.7335 74.324 25.8888Z" fill="#1976D2"/>
<path d="M96.6918 26.5C96.5668 26.1174 96.402 25.7746 96.1974 25.4716C95.9967 25.1648 95.7562 24.9034 95.4759 24.6875C95.1993 24.4716 94.8849 24.3068 94.5327 24.1932C94.1804 24.0795 93.794 24.0227 93.3736 24.0227C92.6842 24.0227 92.0573 24.2008 91.4929 24.5568C90.9285 24.9129 90.4796 25.4375 90.1463 26.1307C89.813 26.8239 89.6463 27.6742 89.6463 28.6818C89.6463 29.6894 89.8149 30.5398 90.152 31.233C90.4891 31.9261 90.9455 32.4508 91.5213 32.8068C92.0971 33.1629 92.7448 33.3409 93.4645 33.3409C94.1312 33.3409 94.7183 33.1989 95.2259 32.9148C95.7372 32.6269 96.1349 32.2216 96.419 31.6989C96.7069 31.1723 96.8509 30.553 96.8509 29.8409L97.2827 29.9318H93.7827V28.6818H98.2145V29.9318C98.2145 30.8902 98.0099 31.7235 97.6009 32.4318C97.1955 33.1402 96.6349 33.6894 95.919 34.0795C95.2069 34.4659 94.3887 34.6591 93.4645 34.6591C92.4342 34.6591 91.5289 34.4167 90.7486 33.9318C89.9721 33.447 89.366 32.7576 88.9304 31.8636C88.4986 30.9697 88.2827 29.9091 88.2827 28.6818C88.2827 27.7614 88.4058 26.9337 88.652 26.1989C88.902 25.4602 89.2543 24.8314 89.7088 24.3125C90.1634 23.7936 90.7012 23.3958 91.3224 23.1193C91.9437 22.8428 92.6274 22.7045 93.3736 22.7045C93.9872 22.7045 94.5592 22.7973 95.0895 22.983C95.6236 23.1648 96.099 23.4242 96.5156 23.7614C96.9361 24.0947 97.2865 24.4943 97.5668 24.9602C97.8471 25.4223 98.0402 25.9356 98.1463 26.5H96.6918ZM103.991 34.6818C103.204 34.6818 102.512 34.4943 101.918 34.1193C101.327 33.7443 100.865 33.2197 100.531 32.5455C100.202 31.8712 100.037 31.0833 100.037 30.1818C100.037 29.2727 100.202 28.4792 100.531 27.8011C100.865 27.1231 101.327 26.5966 101.918 26.2216C102.512 25.8466 103.204 25.6591 103.991 25.6591C104.779 25.6591 105.469 25.8466 106.06 26.2216C106.654 26.5966 107.116 27.1231 107.446 27.8011C107.779 28.4792 107.946 29.2727 107.946 30.1818C107.946 31.0833 107.779 31.8712 107.446 32.5455C107.116 33.2197 106.654 33.7443 106.06 34.1193C105.469 34.4943 104.779 34.6818 103.991 34.6818ZM103.991 33.4773C104.59 33.4773 105.082 33.3239 105.469 33.017C105.855 32.7102 106.141 32.3068 106.327 31.8068C106.512 31.3068 106.605 30.7652 106.605 30.1818C106.605 29.5985 106.512 29.0549 106.327 28.5511C106.141 28.0473 105.855 27.6402 105.469 27.3295C105.082 27.0189 104.59 26.8636 103.991 26.8636C103.393 26.8636 102.901 27.0189 102.514 27.3295C102.128 27.6402 101.842 28.0473 101.656 28.5511C101.471 29.0549 101.378 29.5985 101.378 30.1818C101.378 30.7652 101.471 31.3068 101.656 31.8068C101.842 32.3068 102.128 32.7102 102.514 33.017C102.901 33.3239 103.393 33.4773 103.991 33.4773ZM113.538 34.6818C112.75 34.6818 112.059 34.4943 111.464 34.1193C110.874 33.7443 110.411 33.2197 110.078 32.5455C109.749 31.8712 109.584 31.0833 109.584 30.1818C109.584 29.2727 109.749 28.4792 110.078 27.8011C110.411 27.1231 110.874 26.5966 111.464 26.2216C112.059 25.8466 112.75 25.6591 113.538 25.6591C114.326 25.6591 115.016 25.8466 115.607 26.2216C116.201 26.5966 116.663 27.1231 116.993 27.8011C117.326 28.4792 117.493 29.2727 117.493 30.1818C117.493 31.0833 117.326 31.8712 116.993 32.5455C116.663 33.2197 116.201 33.7443 115.607 34.1193C115.016 34.4943 114.326 34.6818 113.538 34.6818ZM113.538 33.4773C114.137 33.4773 114.629 33.3239 115.016 33.017C115.402 32.7102 115.688 32.3068 115.874 31.8068C116.059 31.3068 116.152 30.7652 116.152 30.1818C116.152 29.5985 116.059 29.0549 115.874 28.5511C115.688 28.0473 115.402 27.6402 115.016 27.3295C114.629 27.0189 114.137 26.8636 113.538 26.8636C112.94 26.8636 112.447 27.0189 112.061 27.3295C111.675 27.6402 111.389 28.0473 111.203 28.5511C111.018 29.0549 110.925 29.5985 110.925 30.1818C110.925 30.7652 111.018 31.3068 111.203 31.8068C111.389 32.3068 111.675 32.7102 112.061 33.017C112.447 33.3239 112.94 33.4773 113.538 33.4773ZM123.062 37.9545C122.415 37.9545 121.858 37.8712 121.392 37.7045C120.926 37.5417 120.538 37.3258 120.227 37.0568C119.92 36.7917 119.676 36.5076 119.494 36.2045L120.562 35.4545C120.684 35.6136 120.837 35.7955 121.023 36C121.208 36.2083 121.462 36.3883 121.784 36.5398C122.11 36.6951 122.536 36.7727 123.062 36.7727C123.767 36.7727 124.348 36.6023 124.807 36.2614C125.265 35.9205 125.494 35.3864 125.494 34.6591V32.8864H125.381C125.282 33.0455 125.142 33.2424 124.96 33.4773C124.782 33.7083 124.525 33.9148 124.188 34.0966C123.854 34.2746 123.403 34.3636 122.835 34.3636C122.131 34.3636 121.498 34.197 120.938 33.8636C120.381 33.5303 119.939 33.0455 119.614 32.4091C119.292 31.7727 119.131 31 119.131 30.0909C119.131 29.197 119.288 28.4186 119.602 27.7557C119.917 27.089 120.354 26.5739 120.915 26.2102C121.475 25.8428 122.123 25.6591 122.858 25.6591C123.426 25.6591 123.877 25.7538 124.21 25.9432C124.547 26.1288 124.805 26.3409 124.983 26.5795C125.165 26.8144 125.305 27.0076 125.403 27.1591H125.54V25.7727H126.835V34.75C126.835 35.5 126.665 36.1098 126.324 36.5795C125.987 37.053 125.532 37.3996 124.96 37.6193C124.392 37.8428 123.759 37.9545 123.062 37.9545ZM123.017 33.1591C123.555 33.1591 124.009 33.036 124.381 32.7898C124.752 32.5436 125.034 32.1894 125.227 31.7273C125.42 31.2652 125.517 30.7121 125.517 30.0682C125.517 29.4394 125.422 28.8845 125.233 28.4034C125.044 27.9223 124.763 27.5455 124.392 27.2727C124.021 27 123.563 26.8636 123.017 26.8636C122.449 26.8636 121.975 27.0076 121.597 27.2955C121.222 27.5833 120.939 27.9697 120.75 28.4545C120.564 28.9394 120.472 29.4773 120.472 30.0682C120.472 30.6742 120.566 31.2102 120.756 31.6761C120.949 32.1383 121.233 32.5019 121.608 32.767C121.987 33.0284 122.456 33.1591 123.017 33.1591ZM130.631 22.8636V34.5H129.29V22.8636H130.631ZM136.746 34.6818C135.905 34.6818 135.179 34.4962 134.57 34.125C133.964 33.75 133.496 33.2273 133.166 32.5568C132.84 31.8826 132.678 31.0985 132.678 30.2045C132.678 29.3106 132.84 28.5227 133.166 27.8409C133.496 27.1553 133.954 26.6212 134.541 26.2386C135.132 25.8523 135.821 25.6591 136.609 25.6591C137.064 25.6591 137.513 25.7348 137.956 25.8864C138.399 26.0379 138.803 26.2841 139.166 26.625C139.53 26.9621 139.82 27.4091 140.036 27.9659C140.251 28.5227 140.359 29.2083 140.359 30.0227V30.5909H133.632V29.4318H138.996C138.996 28.9394 138.897 28.5 138.7 28.1136C138.507 27.7273 138.231 27.4223 137.871 27.1989C137.515 26.9754 137.094 26.8636 136.609 26.8636C136.075 26.8636 135.613 26.9962 135.223 27.2614C134.837 27.5227 134.539 27.8636 134.331 28.2841C134.123 28.7045 134.018 29.1553 134.018 29.6364V30.4091C134.018 31.0682 134.132 31.6269 134.359 32.0852C134.59 32.5398 134.911 32.8864 135.32 33.125C135.729 33.3598 136.204 33.4773 136.746 33.4773C137.098 33.4773 137.416 33.428 137.7 33.3295C137.988 33.2273 138.236 33.0758 138.445 32.875C138.653 32.6705 138.814 32.4167 138.928 32.1136L140.223 32.4773C140.087 32.9167 139.857 33.303 139.536 33.6364C139.214 33.9659 138.816 34.2235 138.342 34.4091C137.869 34.5909 137.337 34.6818 136.746 34.6818Z" fill="black"/>
</g>
<defs>
<filter id="filter0_ddd_409_10813" x="0.982759" y="0" width="184.534" height="79.5388" filterUnits="userSpaceOnUse" color-interpolation-filters="sRGB">
<feFlood flood-opacity="0" result="BackgroundImageFix"/>
<feColorMatrix in="SourceAlpha" type="matrix" values="0 0 0 0 0 0 0 0 0 0 0 0 0 0 0 0 0 0 127 0" result="hardAlpha"/>
<feOffset dy="2.76726"/>
<feGaussianBlur stdDeviation="1.1069"/>
<feColorMatrix type="matrix" values="0 0 0 0 0 0 0 0 0 0 0 0 0 0 0 0 0 0 0.0196802 0"/>
<feBlend mode="normal" in2="BackgroundImageFix" result="effect1_dropShadow_409_10813"/>
<feColorMatrix in="SourceAlpha" type="matrix" values="0 0 0 0 0 0 0 0 0 0 0 0 0 0 0 0 0 0 127 0" result="hardAlpha"/>
<feOffset dy="6.6501"/>
<feGaussianBlur stdDeviation="2.66004"/>
<feColorMatrix type="matrix" values="0 0 0 0 0 0 0 0 0 0 0 0 0 0 0 0 0 0 0.0282725 0"/>
<feBlend mode="normal" in2="effect1_dropShadow_409_10813" result="effect2_dropShadow_409_10813"/>
<feColorMatrix in="SourceAlpha" type="matrix" values="0 0 0 0 0 0 0 0 0 0 0 0 0 0 0 0 0 0 127 0" result="hardAlpha"/>
<feOffset dy="12.5216"/>
<feGaussianBlur stdDeviation="5.00862"/>
<feColorMatrix type="matrix" values="0 0 0 0 0 0 0 0 0 0 0 0 0 0 0 0 0 0 0.035 0"/>
<feBlend mode="normal" in2="effect2_dropShadow_409_10813" result="effect3_dropShadow_409_10813"/>
<feBlend mode="normal" in="SourceGraphic" in2="effect3_dropShadow_409_10813" result="shape"/>
</filter>
</defs>
</svg>
