<svg width="24" height="24" viewBox="0 0 24 24" fill="none" xmlns="http://www.w3.org/2000/svg">
<g clip-path="url(#clip0_409_5677)">
<path d="M10 11.3333H12V12.6666H10V11.3333Z" fill="#E61573"/>
<path d="M17.633 9.44662C16.4507 7.51182 14.8377 5.87603 12.9197 4.66662C12.0336 4.10504 11.0235 3.76891 9.97767 3.68757C8.9318 3.60622 7.88191 3.78213 6.91967 4.19995C6.07801 4.59695 5.34564 5.19286 4.78579 5.93622C4.22595 6.67958 3.85547 7.54805 3.70634 8.46662C3.65301 8.77995 3.61301 9.07995 3.57301 9.37328C2.94884 9.47445 2.38093 9.79412 1.97063 10.2752C1.56033 10.7564 1.33435 11.3676 1.33301 11.9999V16.0866C1.33301 16.4402 1.47348 16.7794 1.72353 17.0294C1.97358 17.2795 2.31272 17.4199 2.66634 17.4199V11.9999C2.66634 11.6463 2.80682 11.3072 3.05687 11.0571C3.30691 10.8071 3.64605 10.6666 3.99967 10.6666H16.4863C17.7712 10.6684 19.003 11.1796 19.9115 12.0881C20.82 12.9967 21.3312 14.2284 21.333 15.5133V15.9999H19.9997C19.7181 15.3134 19.1936 14.7545 18.5263 14.4299C17.8589 14.1054 17.0954 14.0379 16.3815 14.2404C15.6676 14.4429 15.0532 14.9011 14.6556 15.5277C14.258 16.1542 14.105 16.9053 14.2258 17.6375C14.3466 18.3696 14.7328 19.0317 15.3106 19.4973C15.8884 19.963 16.6174 20.1995 17.3586 20.1619C18.0997 20.1243 18.801 19.8151 19.3287 19.2934C19.8565 18.7717 20.1736 18.0739 20.2197 17.3333H21.333C21.6866 17.3333 22.0258 17.1928 22.2758 16.9428C22.5259 16.6927 22.6663 16.3536 22.6663 15.9999V15.5133C22.6637 14.0746 22.1596 12.6818 21.241 11.5745C20.3223 10.4673 19.0465 9.71482 17.633 9.44662ZM7.33301 9.33328H4.61967C4.61967 9.12662 4.67967 8.91328 4.71967 8.66662C4.83486 7.93426 5.13544 7.24353 5.59285 6.66009C6.05026 6.07666 6.6493 5.61992 7.33301 5.33328V9.33328ZM8.66634 9.33328V5.05328C9.91098 4.89166 11.1732 5.16483 12.2397 5.82662C13.6955 6.7334 14.952 7.9264 15.933 9.33328H8.66634ZM17.1997 18.9199C16.87 18.9199 16.5478 18.8222 16.2737 18.6391C15.9996 18.4559 15.786 18.1956 15.6599 17.8911C15.5337 17.5865 15.5007 17.2514 15.565 16.9281C15.6293 16.6048 15.7881 16.3079 16.0212 16.0748C16.2543 15.8417 16.5512 15.6829 16.8745 15.6186C17.1978 15.5543 17.5329 15.5873 17.8375 15.7135C18.142 15.8396 18.4023 16.0532 18.5855 16.3273C18.7686 16.6014 18.8663 16.9236 18.8663 17.2533C18.8663 17.6953 18.6907 18.1192 18.3782 18.4318C18.0656 18.7444 17.6417 18.9199 17.1997 18.9199Z" fill="#E61573"/>
<path d="M9.447 15.9999C9.16543 15.3133 8.64094 14.7544 7.97358 14.4299C7.30623 14.1053 6.54275 14.0378 5.82883 14.2403C5.1149 14.4428 4.50052 14.901 4.10291 15.5276C3.7053 16.1542 3.5523 16.9052 3.67311 17.6374C3.79392 18.3696 4.18008 19.0316 4.7579 19.4973C5.33572 19.9629 6.06475 20.1995 6.80588 20.1619C7.54701 20.1242 8.24834 19.8151 8.77606 19.2934C9.30378 18.7716 9.62093 18.0739 9.667 17.3332H13.2003V17.1665C13.1871 16.7732 13.2321 16.3801 13.3337 15.9999H9.447ZM6.667 18.9199C6.33736 18.9199 6.01513 18.8221 5.74105 18.639C5.46696 18.4559 5.25334 18.1956 5.1272 17.891C5.00105 17.5865 4.96804 17.2514 5.03235 16.9281C5.09666 16.6048 5.2554 16.3078 5.48848 16.0747C5.72157 15.8416 6.01854 15.6829 6.34185 15.6186C6.66515 15.5543 7.00026 15.5873 7.3048 15.7134C7.60935 15.8396 7.86964 16.0532 8.05278 16.3273C8.23591 16.6013 8.33366 16.9236 8.33366 17.2532C8.33366 17.6952 8.15807 18.1192 7.84551 18.4317C7.53295 18.7443 7.10902 18.9199 6.667 18.9199Z" fill="#E61573"/>
</g>
<defs>
<clipPath id="clip0_409_5677">
<rect width="24" height="24" fill="white"/>
</clipPath>
</defs>
</svg>
