<svg width="175" height="122" viewBox="0 0 175 122" fill="none" xmlns="http://www.w3.org/2000/svg">
<g clip-path="url(#clip0_409_5810)">
<rect y="0.724609" width="175" height="121" rx="8" fill="url(#paint0_linear_409_5810)"/>
<g filter="url(#filter0_f_409_5810)">
<ellipse cx="222" cy="108.647" rx="62" ry="83.5" fill="#FFFCBD"/>
</g>
<path d="M22.656 28.1036C22.4764 28.0179 22.2702 28.0071 22.0827 28.0735C21.8951 28.1399 21.7417 28.2781 21.656 28.4576C21.5703 28.6372 21.5595 28.8434 21.6259 29.0309C21.6923 29.2185 21.8304 29.3719 22.01 29.4576L22.656 28.1036ZM23.444 29.8916L22.798 30.2716C22.8669 30.3889 22.9665 30.4852 23.086 30.5503C23.2055 30.6154 23.3404 30.6467 23.4763 30.6409C23.6122 30.6352 23.7441 30.5926 23.8576 30.5176C23.9712 30.4427 24.0622 30.3383 24.121 30.2156L23.444 29.8916ZM26.022 27.7736C26.1889 27.6751 26.3112 27.5159 26.3633 27.3292C26.4154 27.1426 26.3933 26.943 26.3015 26.7723C26.2097 26.6017 26.0554 26.4732 25.8709 26.4137C25.6865 26.3543 25.4862 26.3686 25.312 26.4536L26.022 27.7736ZM28.25 28.2246C28.25 29.3518 27.8022 30.4328 27.0052 31.2298C26.2082 32.0268 25.1272 32.4746 24 32.4746V33.9746C25.525 33.9746 26.9875 33.3688 28.0659 32.2905C29.1442 31.2121 29.75 29.7496 29.75 28.2246H28.25ZM24 32.4746C22.8728 32.4746 21.7918 32.0268 20.9948 31.2298C20.1978 30.4328 19.75 29.3518 19.75 28.2246H18.25C18.25 29.7496 18.8558 31.2121 19.9341 32.2905C21.0125 33.3688 22.475 33.9746 24 33.9746V32.4746ZM19.75 28.2246C19.75 27.0974 20.1978 26.0164 20.9948 25.2194C21.7918 24.4224 22.8728 23.9746 24 23.9746V22.4746C22.475 22.4746 21.0125 23.0804 19.9341 24.1587C18.8558 25.2371 18.25 26.6996 18.25 28.2246H19.75ZM24 23.9746C25.1272 23.9746 26.2082 24.4224 27.0052 25.2194C27.8022 26.0164 28.25 27.0974 28.25 28.2246H29.75C29.75 26.6996 29.1442 25.2371 28.0659 24.1587C26.9875 23.0804 25.525 22.4746 24 22.4746V23.9746ZM22.333 28.7806L22.01 29.4576L22.008 29.4566L22.007 29.4556L22.004 29.4536H22.002L22.006 29.4546L22.048 29.4796C22.09 29.5056 22.158 29.5496 22.238 29.6156C22.4 29.7466 22.614 29.9586 22.798 30.2716L24.091 29.5106C23.8542 29.1055 23.5463 28.7464 23.182 28.4506C23.0253 28.3235 22.8573 28.211 22.68 28.1146L22.666 28.1076L22.661 28.1056L22.656 28.1036L22.333 28.7806ZM23.444 29.8916L24.121 30.2156L24.122 30.2126L24.129 30.1986L24.159 30.1386C24.187 30.0839 24.2277 30.0069 24.281 29.9076C24.388 29.7106 24.542 29.4436 24.731 29.1576C25.13 28.5546 25.599 28.0016 26.022 27.7736L25.312 26.4536C24.533 26.8716 23.892 27.7076 23.479 28.3316C23.2239 28.7192 22.9915 29.1212 22.783 29.5356L22.773 29.5576L22.77 29.5636L22.769 29.5656L23.444 29.8916ZM29.5 19.2246V18.4746H29.498L29.5 19.2246ZM21.55 19.8246C21.7091 19.9441 21.9092 19.9955 22.1062 19.9674C22.3032 19.9394 22.481 19.8342 22.6005 19.6751C22.72 19.516 22.7714 19.3159 22.7433 19.1189C22.7153 18.9219 22.6101 18.7441 22.451 18.6246L21.55 19.8246ZM31.555 26.8616C31.4718 26.9152 31.4 26.9848 31.3438 27.0664C31.2876 27.1479 31.2481 27.2397 31.2276 27.3366C31.2071 27.4335 31.2059 27.5334 31.2242 27.6307C31.2425 27.728 31.2799 27.8208 31.3343 27.9035C31.3886 27.9863 31.4588 28.0575 31.5408 28.113C31.6228 28.1686 31.7149 28.2073 31.812 28.227C31.909 28.2467 32.009 28.247 32.1061 28.2279C32.2033 28.2088 32.2957 28.1706 32.378 28.1156L31.555 26.8616ZM15.615 27.8726C15.6946 27.9307 15.7848 27.9725 15.8806 27.9956C15.9763 28.0188 16.0756 28.0229 16.173 28.0077C16.2703 27.9924 16.3636 27.9582 16.4477 27.9069C16.5318 27.8556 16.605 27.7882 16.663 27.7086C16.721 27.629 16.7628 27.5388 16.786 27.4431C16.8092 27.3473 16.8133 27.248 16.798 27.1506C16.7828 27.0533 16.7486 26.96 16.6973 26.8759C16.646 26.7918 16.5786 26.7187 16.499 26.6606L15.615 27.8726ZM28.233 20.8826C28.1853 20.9705 28.1557 21.0671 28.1459 21.1666C28.1361 21.2661 28.1463 21.3666 28.176 21.4621C28.2056 21.5576 28.254 21.6463 28.3183 21.7228C28.3827 21.7993 28.4617 21.8622 28.5507 21.9078C28.6398 21.9533 28.737 21.9806 28.8367 21.988C28.9364 21.9954 29.0366 21.9828 29.1314 21.9509C29.2262 21.9191 29.3137 21.8685 29.3886 21.8024C29.4636 21.7362 29.5246 21.6557 29.568 21.5656L28.233 20.8826ZM24 13.9746C25.2598 13.9746 26.468 14.4751 27.3588 15.3659C28.2496 16.2567 28.75 17.4648 28.75 18.7246H30.25C30.25 17.067 29.5915 15.4773 28.4194 14.3052C27.2473 13.1331 25.6576 12.4746 24 12.4746V13.9746ZM29.5 19.9746C30.4946 19.9746 31.4484 20.3697 32.1517 21.073C32.8549 21.7762 33.25 22.73 33.25 23.7246H34.75C34.75 20.8246 32.4 18.4746 29.5 18.4746V19.9746ZM29.48 19.9746H29.502L29.498 18.4746H29.476L29.48 19.9746ZM28.75 18.7246C28.75 18.8706 28.7433 19.0149 28.73 19.1576L30.224 19.2916C30.2413 19.1049 30.25 18.9159 30.25 18.7246H28.75ZM14.75 23.2246C14.7501 22.1683 15.1435 21.1499 15.8536 20.3678C16.5637 19.5858 17.5396 19.0953 18.591 18.9936L18.45 17.4996C17.0265 17.6364 15.7051 18.2987 14.7437 19.3572C13.7822 20.4158 13.2497 21.7946 13.25 23.2246H14.75ZM18.591 18.9936C18.7257 18.9803 18.862 18.9746 19 18.9746V17.4746C18.8133 17.4746 18.63 17.4823 18.45 17.4996L18.591 18.9936ZM19.268 18.3116C19.3713 17.1278 19.9146 16.0258 20.7906 15.2229C21.6666 14.42 22.8117 13.9746 24 13.9746V12.4746C22.4361 12.4745 20.929 13.0606 19.7762 14.1174C18.6234 15.1741 17.9086 16.6246 17.773 18.1826L19.268 18.3116ZM19 18.9746C19.958 18.9746 20.84 19.2906 21.55 19.8246L22.451 18.6246C21.4561 17.8766 20.2447 17.4729 19 17.4746V18.9746ZM33.25 23.7246C33.25 24.3471 33.0951 24.9598 32.7992 25.5075C32.5033 26.0551 32.0757 26.5205 31.555 26.8616L32.378 28.1156C33.1067 27.638 33.705 26.9865 34.1191 26.22C34.5332 25.4534 34.75 24.5959 34.75 23.7246H33.25ZM16.499 26.6606C15.9567 26.2669 15.5154 25.7502 15.2114 25.1529C14.9073 24.5556 14.7492 23.8948 14.75 23.2246H13.25C13.25 25.1346 14.183 26.8286 15.615 27.8726L16.499 26.6606ZM28.73 19.1576C28.674 19.7746 28.5 20.3576 28.232 20.8836L29.567 21.5656C29.9297 20.8568 30.1524 20.0847 30.223 19.2916L28.73 19.1576Z" fill="#E61573"/>
<path d="M17.4929 49.0073C17.4588 48.6635 17.3125 48.3965 17.054 48.2061C16.7955 48.0158 16.4446 47.9206 16.0014 47.9206C15.7003 47.9206 15.446 47.9632 15.2386 48.0485C15.0313 48.1309 14.8722 48.2459 14.7614 48.3936C14.6534 48.5414 14.5994 48.709 14.5994 48.8965C14.5938 49.0527 14.6264 49.1891 14.6974 49.3056C14.7713 49.4221 14.8722 49.5229 15 49.6081C15.1278 49.6905 15.2756 49.763 15.4432 49.8255C15.6108 49.8851 15.7898 49.9363 15.9801 49.9789L16.7642 50.1664C17.1449 50.2516 17.4943 50.3652 17.8125 50.5073C18.1307 50.6493 18.4063 50.824 18.6392 51.0314C18.8722 51.2388 19.0526 51.4831 19.1804 51.7644C19.3111 52.0456 19.3778 52.3681 19.3807 52.7317C19.3778 53.2658 19.2415 53.7289 18.9716 54.1209C18.7045 54.5101 18.3182 54.8127 17.8125 55.0286C17.3097 55.2417 16.7031 55.3482 15.9929 55.3482C15.2884 55.3482 14.6747 55.2402 14.152 55.0243C13.6321 54.8084 13.2259 54.4888 12.9332 54.0655C12.6435 53.6394 12.4915 53.1124 12.4773 52.4846H14.2628C14.2827 52.7772 14.3665 53.0215 14.5142 53.2175C14.6648 53.4107 14.8651 53.557 15.1151 53.6564C15.3679 53.753 15.6534 53.8013 15.9716 53.8013C16.2841 53.8013 16.5554 53.7559 16.7855 53.665C17.0185 53.574 17.1989 53.4476 17.3267 53.2857C17.4545 53.1238 17.5185 52.9377 17.5185 52.7275C17.5185 52.5314 17.4602 52.3667 17.3438 52.2331C17.2301 52.0996 17.0625 51.986 16.8409 51.8922C16.6222 51.7985 16.3537 51.7132 16.0355 51.6365L15.0852 51.3979C14.3494 51.2189 13.7685 50.9391 13.3423 50.5584C12.9162 50.1777 12.7045 49.6649 12.7074 49.0201C12.7045 48.4917 12.8452 48.03 13.1293 47.6351C13.4162 47.2402 13.8097 46.932 14.3097 46.7104C14.8097 46.4888 15.3778 46.378 16.0142 46.378C16.6619 46.378 17.2273 46.4888 17.7102 46.7104C18.196 46.932 18.5739 47.2402 18.8438 47.6351C19.1136 48.03 19.2528 48.4874 19.2614 49.0073H17.4929ZM22.4542 55.3482C22.0366 55.3482 21.6644 55.2757 21.3377 55.1309C21.011 54.9831 20.7525 54.7658 20.5621 54.4789C20.3746 54.1891 20.2809 53.8283 20.2809 53.3965C20.2809 53.0328 20.3477 52.7275 20.4812 52.4803C20.6147 52.2331 20.7965 52.0343 21.0266 51.8837C21.2567 51.7331 21.5181 51.6195 21.8107 51.5428C22.1062 51.4661 22.4158 51.4121 22.7397 51.3809C23.1204 51.3411 23.4272 51.3042 23.6602 51.2701C23.8931 51.2331 24.0621 51.1792 24.1673 51.1081C24.2724 51.0371 24.3249 50.932 24.3249 50.7928V50.7672C24.3249 50.4973 24.2397 50.2885 24.0692 50.1408C23.9016 49.9931 23.663 49.9192 23.3533 49.9192C23.0266 49.9192 22.7667 49.9917 22.5735 50.1365C22.3803 50.2786 22.2525 50.4576 22.19 50.6735L20.511 50.5371C20.5962 50.1394 20.7638 49.7956 21.0138 49.5059C21.2638 49.2132 21.5863 48.9888 21.9812 48.8326C22.3789 48.6735 22.8391 48.5939 23.3619 48.5939C23.7255 48.5939 24.0735 48.6365 24.4059 48.7218C24.7411 48.807 25.038 48.9391 25.2965 49.1181C25.5579 49.2971 25.7638 49.5272 25.9144 49.8084C26.065 50.0868 26.1403 50.4206 26.1403 50.8098V55.2246H24.4187V54.3169H24.3675C24.2624 54.5215 24.1218 54.7019 23.9457 54.8581C23.7695 55.0115 23.5579 55.1323 23.3107 55.2203C23.0636 55.3056 22.7781 55.3482 22.4542 55.3482ZM22.9741 54.0953C23.2411 54.0953 23.4769 54.0428 23.6815 53.9377C23.886 53.8297 24.0465 53.6848 24.163 53.503C24.2795 53.3212 24.3377 53.1152 24.3377 52.8851V52.1905C24.2809 52.2275 24.2028 52.2615 24.1033 52.2928C24.0067 52.3212 23.8974 52.3482 23.7752 52.3738C23.6531 52.3965 23.5309 52.4178 23.4087 52.4377C23.2866 52.4547 23.1758 52.4703 23.0763 52.4846C22.8633 52.5158 22.6772 52.5655 22.5181 52.6337C22.359 52.7019 22.2354 52.7942 22.1474 52.9107C22.0593 53.0243 22.0153 53.1664 22.0153 53.3368C22.0153 53.584 22.1048 53.7729 22.2837 53.9036C22.4656 54.0314 22.6957 54.0953 22.9741 54.0953ZM33.4165 48.6792L31.1282 55.2246H29.0827L26.7944 48.6792H28.712L30.0714 53.3624H30.1396L31.4947 48.6792H33.4165ZM34.3455 55.2246V48.6792H36.1609V55.2246H34.3455ZM35.2575 47.8354C34.9876 47.8354 34.756 47.7459 34.5629 47.5669C34.3725 47.3851 34.2773 47.1678 34.2773 46.9149C34.2773 46.6649 34.3725 46.4505 34.5629 46.2715C34.756 46.0897 34.9876 45.9988 35.2575 45.9988C35.5273 45.9988 35.7575 46.0897 35.9478 46.2715C36.141 46.4505 36.2376 46.6649 36.2376 46.9149C36.2376 47.1678 36.141 47.3851 35.9478 47.5669C35.7575 47.7459 35.5273 47.8354 35.2575 47.8354ZM39.4304 51.4405V55.2246H37.6151V48.6792H39.3452V49.834H39.4219C39.5668 49.4533 39.8097 49.1522 40.1506 48.9306C40.4915 48.7061 40.9048 48.5939 41.3906 48.5939C41.8452 48.5939 42.2415 48.6934 42.5795 48.8922C42.9176 49.0911 43.1804 49.3752 43.3679 49.7445C43.5554 50.111 43.6491 50.5485 43.6491 51.057V55.2246H41.8338V51.3809C41.8366 50.9803 41.7344 50.6678 41.527 50.4434C41.3196 50.2161 41.0341 50.1025 40.6705 50.1025C40.4261 50.1025 40.2102 50.155 40.0227 50.2601C39.8381 50.3652 39.6932 50.5186 39.5881 50.7203C39.4858 50.9192 39.4332 51.1593 39.4304 51.4405ZM48.0288 57.8155C47.4407 57.8155 46.9364 57.7346 46.516 57.5726C46.0984 57.4135 45.766 57.1962 45.5188 56.9206C45.2717 56.6451 45.1112 56.3354 45.0373 55.9917L46.7163 55.7658C46.7674 55.8965 46.8484 56.0186 46.9592 56.1323C47.07 56.2459 47.2163 56.3368 47.3981 56.405C47.5827 56.476 47.8072 56.5115 48.0714 56.5115C48.4663 56.5115 48.7915 56.415 49.0472 56.2218C49.3058 56.0314 49.435 55.7118 49.435 55.263V54.0655H49.3583C49.2788 54.2473 49.1594 54.4192 49.0004 54.5811C48.8413 54.7431 48.6367 54.8752 48.3867 54.9775C48.1367 55.0797 47.8384 55.1309 47.4918 55.1309C47.0004 55.1309 46.5529 55.0172 46.1495 54.79C45.7489 54.5598 45.4293 54.209 45.1907 53.7374C44.9549 53.263 44.837 52.6635 44.837 51.9391C44.837 51.1976 44.9577 50.5783 45.1992 50.0811C45.4407 49.584 45.7617 49.2118 46.1623 48.9647C46.5657 48.7175 47.0075 48.5939 47.4876 48.5939C47.854 48.5939 48.1609 48.6564 48.408 48.7814C48.6552 48.9036 48.854 49.057 49.0046 49.2417C49.158 49.4235 49.2759 49.6025 49.3583 49.7786H49.4265V48.6792H51.229V55.2885C51.229 55.8453 51.0927 56.3113 50.82 56.6863C50.5472 57.0613 50.1694 57.3425 49.6864 57.53C49.2063 57.7203 48.6538 57.8155 48.0288 57.8155ZM48.0671 53.7672C48.3597 53.7672 48.6069 53.6948 48.8086 53.5499C49.0131 53.4022 49.1694 53.1919 49.2773 52.9192C49.3881 52.6436 49.4435 52.3141 49.4435 51.9306C49.4435 51.5471 49.3896 51.2147 49.2816 50.9334C49.1737 50.6493 49.0174 50.4292 48.8129 50.2729C48.6083 50.1167 48.3597 50.0385 48.0671 50.0385C47.7688 50.0385 47.5174 50.1195 47.3129 50.2814C47.1083 50.4405 46.9535 50.6621 46.8484 50.9462C46.7433 51.2303 46.6907 51.5584 46.6907 51.9306C46.6907 52.3084 46.7433 52.6351 46.8484 52.9107C46.9563 53.1834 47.1112 53.3951 47.3129 53.5456C47.5174 53.6934 47.7688 53.7672 48.0671 53.7672ZM58.1197 50.5456L56.4577 50.6479C56.4293 50.5059 56.3683 50.378 56.2745 50.2644C56.1808 50.1479 56.0572 50.0556 55.9038 49.9874C55.7532 49.9164 55.5728 49.8809 55.3626 49.8809C55.0813 49.8809 54.8441 49.9405 54.6509 50.0598C54.4577 50.1763 54.3612 50.3326 54.3612 50.5286C54.3612 50.6848 54.4237 50.8169 54.5487 50.9249C54.6737 51.0328 54.8881 51.1195 55.1921 51.1848L56.3768 51.4235C57.0131 51.5542 57.4876 51.7644 57.8001 52.0542C58.1126 52.3439 58.2688 52.7246 58.2688 53.1962C58.2688 53.6252 58.1424 54.0016 57.8896 54.3255C57.6396 54.6493 57.2958 54.9022 56.8583 55.084C56.4237 55.263 55.9222 55.3525 55.354 55.3525C54.4876 55.3525 53.7972 55.1721 53.283 54.8113C52.7717 54.4476 52.4719 53.9533 52.3839 53.3283L54.1694 53.2346C54.2234 53.4988 54.354 53.7005 54.5614 53.8397C54.7688 53.976 55.0344 54.0442 55.3583 54.0442C55.6765 54.0442 55.9322 53.9831 56.1254 53.861C56.3214 53.736 56.4208 53.5755 56.4237 53.3794C56.4208 53.2147 56.3512 53.0797 56.2148 52.9746C56.0785 52.8667 55.8683 52.7843 55.5842 52.7275L54.4506 52.5016C53.8114 52.3738 53.3356 52.1522 53.0231 51.8368C52.7134 51.5215 52.5586 51.1195 52.5586 50.6309C52.5586 50.2104 52.6722 49.8482 52.8995 49.5442C53.1296 49.2402 53.4521 49.0059 53.8668 48.8411C54.2844 48.6763 54.7731 48.5939 55.3327 48.5939C56.1594 48.5939 56.81 48.7686 57.2844 49.1181C57.7617 49.4675 58.0401 49.9434 58.1197 50.5456ZM63.7276 55.2246H61.7504L64.7631 46.4973H67.141L70.1495 55.2246H68.1722L65.9862 48.4917H65.918L63.7276 55.2246ZM63.604 51.7942H68.2745V53.2346H63.604V51.7942ZM73.8185 55.3525C73.1481 55.3525 72.5714 55.2104 72.0884 54.9263C71.6083 54.6394 71.239 54.2417 70.9805 53.7331C70.7248 53.2246 70.5969 52.6394 70.5969 51.9775C70.5969 51.307 70.7262 50.7189 70.9847 50.2132C71.2461 49.7047 71.6168 49.3084 72.0969 49.0243C72.5771 48.7374 73.1481 48.5939 73.81 48.5939C74.381 48.5939 74.881 48.6976 75.31 48.905C75.739 49.1124 76.0785 49.4036 76.3285 49.7786C76.5785 50.1536 76.7163 50.5939 76.7418 51.0996H75.0288C74.9805 50.7729 74.8526 50.5101 74.6452 50.3113C74.4407 50.1096 74.1722 50.0087 73.8398 50.0087C73.5586 50.0087 73.3129 50.0854 73.1026 50.2388C72.8952 50.3894 72.7333 50.6096 72.6168 50.8993C72.5004 51.1891 72.4421 51.54 72.4421 51.9519C72.4421 52.3695 72.4989 52.7246 72.6126 53.0172C72.729 53.3098 72.8924 53.5328 73.1026 53.6863C73.3129 53.8397 73.5586 53.9164 73.8398 53.9164C74.0472 53.9164 74.2333 53.8738 74.3981 53.7885C74.5657 53.7033 74.7035 53.5797 74.8114 53.4178C74.9222 53.253 74.9947 53.0556 75.0288 52.8255H76.7418C76.7134 53.3255 76.5771 53.7658 76.3327 54.1465C76.0913 54.5243 75.7575 54.8198 75.3313 55.0328C74.9052 55.2459 74.4009 55.3525 73.8185 55.3525ZM80.8615 55.3525C80.1911 55.3525 79.6143 55.2104 79.1314 54.9263C78.6513 54.6394 78.282 54.2417 78.0234 53.7331C77.7678 53.2246 77.6399 52.6394 77.6399 51.9775C77.6399 51.307 77.7692 50.7189 78.0277 50.2132C78.2891 49.7047 78.6598 49.3084 79.1399 49.0243C79.62 48.7374 80.1911 48.5939 80.853 48.5939C81.424 48.5939 81.924 48.6976 82.353 48.905C82.782 49.1124 83.1214 49.4036 83.3714 49.7786C83.6214 50.1536 83.7592 50.5939 83.7848 51.0996H82.0717C82.0234 50.7729 81.8956 50.5101 81.6882 50.3113C81.4837 50.1096 81.2152 50.0087 80.8828 50.0087C80.6016 50.0087 80.3558 50.0854 80.1456 50.2388C79.9382 50.3894 79.7763 50.6096 79.6598 50.8993C79.5433 51.1891 79.4851 51.54 79.4851 51.9519C79.4851 52.3695 79.5419 52.7246 79.6555 53.0172C79.772 53.3098 79.9354 53.5328 80.1456 53.6863C80.3558 53.8397 80.6016 53.9164 80.8828 53.9164C81.0902 53.9164 81.2763 53.8738 81.4411 53.7885C81.6087 53.7033 81.7464 53.5797 81.8544 53.4178C81.9652 53.253 82.0376 53.0556 82.0717 52.8255H83.7848C83.7564 53.3255 83.62 53.7658 83.3757 54.1465C83.1342 54.5243 82.8004 54.8198 82.3743 55.0328C81.9482 55.2459 81.4439 55.3525 80.8615 55.3525ZM87.9045 55.3525C87.2425 55.3525 86.6701 55.2118 86.1871 54.9306C85.707 54.6465 85.3363 54.2516 85.0749 53.7459C84.8136 53.2374 84.6829 52.6479 84.6829 51.9775C84.6829 51.3013 84.8136 50.7104 85.0749 50.2047C85.3363 49.6962 85.707 49.3013 86.1871 49.0201C86.6701 48.736 87.2425 48.5939 87.9045 48.5939C88.5664 48.5939 89.1374 48.736 89.6175 49.0201C90.1005 49.3013 90.4727 49.6962 90.734 50.2047C90.9954 50.7104 91.1261 51.3013 91.1261 51.9775C91.1261 52.6479 90.9954 53.2374 90.734 53.7459C90.4727 54.2516 90.1005 54.6465 89.6175 54.9306C89.1374 55.2118 88.5664 55.3525 87.9045 55.3525ZM87.913 53.9462C88.2141 53.9462 88.4656 53.861 88.6673 53.6905C88.869 53.5172 89.021 53.2814 89.1232 52.9831C89.2283 52.6848 89.2809 52.3453 89.2809 51.9647C89.2809 51.584 89.2283 51.2445 89.1232 50.9462C89.021 50.6479 88.869 50.4121 88.6673 50.2388C88.4656 50.0655 88.2141 49.9789 87.913 49.9789C87.609 49.9789 87.3533 50.0655 87.146 50.2388C86.9414 50.4121 86.7866 50.6479 86.6815 50.9462C86.5792 51.2445 86.5281 51.584 86.5281 51.9647C86.5281 52.3453 86.5792 52.6848 86.6815 52.9831C86.7866 53.2814 86.9414 53.5172 87.146 53.6905C87.3533 53.861 87.609 53.9462 87.913 53.9462ZM96.5039 52.4377V48.6792H98.3192V55.2246H96.5763V54.0357H96.5082C96.3604 54.4192 96.1147 54.7275 95.771 54.9604C95.43 55.1934 95.0138 55.3098 94.5224 55.3098C94.0849 55.3098 93.6999 55.2104 93.3675 55.0115C93.0352 54.8127 92.7752 54.53 92.5877 54.1635C92.4031 53.7971 92.3093 53.3581 92.3065 52.8468V48.6792H94.1218V52.5229C94.1246 52.9093 94.2283 53.2147 94.4329 53.4391C94.6374 53.6635 94.9116 53.7757 95.2553 53.7757C95.4741 53.7757 95.6786 53.726 95.869 53.6266C96.0593 53.5243 96.2127 53.3738 96.3292 53.1749C96.4485 52.976 96.5067 52.7303 96.5039 52.4377ZM101.587 51.4405V55.2246H99.7713V48.6792H101.501V49.834H101.578C101.723 49.4533 101.966 49.1522 102.307 48.9306C102.648 48.7061 103.061 48.5939 103.547 48.5939C104.001 48.5939 104.398 48.6934 104.736 48.8922C105.074 49.0911 105.337 49.3752 105.524 49.7445C105.712 50.111 105.805 50.5485 105.805 51.057V55.2246H103.99V51.3809C103.993 50.9803 103.891 50.6678 103.683 50.4434C103.476 50.2161 103.19 50.1025 102.827 50.1025C102.582 50.1025 102.366 50.155 102.179 50.2601C101.994 50.3652 101.849 50.5186 101.744 50.7203C101.642 50.9192 101.589 51.1593 101.587 51.4405ZM110.718 48.6792V50.0428H106.776V48.6792H110.718ZM107.671 47.111H109.486V53.2132C109.486 53.3809 109.512 53.5115 109.563 53.6053C109.614 53.6962 109.685 53.7601 109.776 53.7971C109.87 53.834 109.978 53.8525 110.1 53.8525C110.185 53.8525 110.27 53.8453 110.355 53.8311C110.441 53.8141 110.506 53.8013 110.551 53.7928L110.837 55.1436C110.746 55.1721 110.618 55.2047 110.453 55.2417C110.289 55.2814 110.088 55.3056 109.853 55.3141C109.415 55.3311 109.032 55.2729 108.702 55.1394C108.375 55.0059 108.121 54.7985 107.939 54.5172C107.757 54.236 107.668 53.8809 107.671 53.4519V47.111ZM116.544 55.3482C116.126 55.3482 115.754 55.2757 115.428 55.1309C115.101 54.9831 114.842 54.7658 114.652 54.4789C114.464 54.1891 114.371 53.8283 114.371 53.3965C114.371 53.0328 114.438 52.7275 114.571 52.4803C114.705 52.2331 114.886 52.0343 115.116 51.8837C115.347 51.7331 115.608 51.6195 115.901 51.5428C116.196 51.4661 116.506 51.4121 116.83 51.3809C117.21 51.3411 117.517 51.3042 117.75 51.2701C117.983 51.2331 118.152 51.1792 118.257 51.1081C118.362 51.0371 118.415 50.932 118.415 50.7928V50.7672C118.415 50.4973 118.33 50.2885 118.159 50.1408C117.991 49.9931 117.753 49.9192 117.443 49.9192C117.116 49.9192 116.857 49.9917 116.663 50.1365C116.47 50.2786 116.342 50.4576 116.28 50.6735L114.601 50.5371C114.686 50.1394 114.854 49.7956 115.104 49.5059C115.354 49.2132 115.676 48.9888 116.071 48.8326C116.469 48.6735 116.929 48.5939 117.452 48.5939C117.815 48.5939 118.163 48.6365 118.496 48.7218C118.831 48.807 119.128 48.9391 119.386 49.1181C119.648 49.2971 119.854 49.5272 120.004 49.8084C120.155 50.0868 120.23 50.4206 120.23 50.8098V55.2246H118.509V54.3169H118.457C118.352 54.5215 118.212 54.7019 118.036 54.8581C117.859 55.0115 117.648 55.1323 117.401 55.2203C117.153 55.3056 116.868 55.3482 116.544 55.3482ZM117.064 54.0953C117.331 54.0953 117.567 54.0428 117.771 53.9377C117.976 53.8297 118.136 53.6848 118.253 53.503C118.369 53.3212 118.428 53.1152 118.428 52.8851V52.1905C118.371 52.2275 118.293 52.2615 118.193 52.2928C118.097 52.3212 117.987 52.3482 117.865 52.3738C117.743 52.3965 117.621 52.4178 117.499 52.4377C117.376 52.4547 117.266 52.4703 117.166 52.4846C116.953 52.5158 116.767 52.5655 116.608 52.6337C116.449 52.7019 116.325 52.7942 116.237 52.9107C116.149 53.0243 116.105 53.1664 116.105 53.3368C116.105 53.584 116.195 53.7729 116.374 53.9036C116.555 54.0314 116.786 54.0953 117.064 54.0953ZM125.12 48.6792V50.0428H121.178V48.6792H125.12ZM122.073 47.111H123.888V53.2132C123.888 53.3809 123.914 53.5115 123.965 53.6053C124.016 53.6962 124.087 53.7601 124.178 53.7971C124.272 53.834 124.38 53.8525 124.502 53.8525C124.587 53.8525 124.673 53.8453 124.758 53.8311C124.843 53.8141 124.908 53.8013 124.954 53.7928L125.239 55.1436C125.148 55.1721 125.021 55.2047 124.856 55.2417C124.691 55.2814 124.491 55.3056 124.255 55.3141C123.817 55.3311 123.434 55.2729 123.104 55.1394C122.778 55.0059 122.523 54.7985 122.342 54.5172C122.16 54.236 122.07 53.8809 122.073 53.4519V47.111ZM66.2276 95.2246H64.2504L67.2631 86.4973H69.641L72.6495 95.2246H70.6722L68.4862 88.4917H68.418L66.2276 95.2246ZM66.104 91.7942H70.7745V93.2346H66.104V91.7942ZM73.6999 95.2246V86.4973H77.1431C77.805 86.4973 78.369 86.6238 78.8349 86.8766C79.3008 87.1266 79.6559 87.4746 79.9002 87.9206C80.1474 88.3638 80.271 88.8752 80.271 89.4547C80.271 90.0343 80.146 90.5456 79.896 90.9888C79.646 91.432 79.2837 91.7772 78.8093 92.0243C78.3377 92.2715 77.7667 92.3951 77.0962 92.3951H74.9016V90.9164H76.7979C77.1531 90.9164 77.4457 90.8553 77.6758 90.7331C77.9087 90.6081 78.082 90.4363 78.1957 90.2175C78.3121 89.9959 78.3704 89.7417 78.3704 89.4547C78.3704 89.1649 78.3121 88.9121 78.1957 88.6962C78.082 88.4774 77.9087 88.3084 77.6758 88.1891C77.4428 88.0669 77.1474 88.0059 76.7894 88.0059H75.5451V95.2246H73.6999ZM81.4695 95.2246V86.4973H84.9126C85.5717 86.4973 86.1342 86.6152 86.6001 86.851C87.0689 87.084 87.4254 87.415 87.6697 87.8439C87.9169 88.2701 88.0405 88.7715 88.0405 89.3482C88.0405 89.9277 87.9155 90.4263 87.6655 90.8439C87.4155 91.2587 87.0533 91.5769 86.5788 91.7985C86.1072 92.0201 85.5362 92.1309 84.8658 92.1309H82.5604V90.6479H84.5675C84.9197 90.6479 85.2124 90.5996 85.4453 90.503C85.6783 90.4064 85.8516 90.2615 85.9652 90.0684C86.0817 89.8752 86.1399 89.6351 86.1399 89.3482C86.1399 89.0584 86.0817 88.8141 85.9652 88.6152C85.8516 88.4164 85.6768 88.2658 85.4411 88.1635C85.2081 88.0584 84.9141 88.0059 84.5589 88.0059H83.3146V95.2246H81.4695ZM86.1825 91.253L88.3516 95.2246H86.3146L84.1925 91.253H86.1825ZM91.4794 86.4973L91.3132 92.6081H89.7536L89.5831 86.4973H91.4794ZM90.5334 95.3354C90.2521 95.3354 90.0107 95.236 89.8089 95.0371C89.6072 94.8354 89.5078 94.5939 89.5107 94.3127C89.5078 94.0343 89.6072 93.7956 89.8089 93.5968C90.0107 93.3979 90.2521 93.2985 90.5334 93.2985C90.8033 93.2985 91.0405 93.3979 91.245 93.5968C91.4496 93.7956 91.5533 94.0343 91.5561 94.3127C91.5533 94.5002 91.5036 94.6721 91.407 94.8283C91.3132 94.9817 91.1896 95.1053 91.0362 95.199C90.8828 95.29 90.7152 95.3354 90.5334 95.3354Z" fill="#231F20"/>
<path d="M13.5341 91.1337V87.2587L23.25 71.9519H26.5909V77.3155H24.6136L18.4886 87.0087V87.1905H32.2955V91.1337H13.5341ZM24.7045 95.2246V89.9519L24.7955 88.236V71.9519H29.4091V95.2246H24.7045ZM48.3125 90.861V89.6337C48.3125 88.7019 48.5095 87.8458 48.9034 87.0655C49.3049 86.2776 49.8845 85.6489 50.642 85.1792C51.4072 84.7019 52.339 84.4632 53.4375 84.4632C54.5511 84.4632 55.4867 84.6981 56.2443 85.1678C57.0095 85.6375 57.5852 86.2663 57.9716 87.0542C58.3655 87.8345 58.5625 88.6943 58.5625 89.6337V90.861C58.5625 91.7928 58.3655 92.6526 57.9716 93.4405C57.5777 94.2208 56.9981 94.8458 56.233 95.3155C55.4678 95.7928 54.536 96.0314 53.4375 96.0314C52.3239 96.0314 51.3883 95.7928 50.6307 95.3155C49.8731 94.8458 49.2973 94.2208 48.9034 93.4405C48.5095 92.6526 48.3125 91.7928 48.3125 90.861ZM51.6193 89.6337V90.861C51.6193 91.3989 51.7481 91.9064 52.0057 92.3837C52.2708 92.861 52.7481 93.0996 53.4375 93.0996C54.1269 93.0996 54.5966 92.8648 54.8466 92.3951C55.1042 91.9254 55.233 91.414 55.233 90.861V89.6337C55.233 89.0807 55.1117 88.5655 54.8693 88.0882C54.6269 87.611 54.1496 87.3723 53.4375 87.3723C52.7557 87.3723 52.2822 87.611 52.017 88.0882C51.7519 88.5655 51.6193 89.0807 51.6193 89.6337ZM36.3693 77.5428V76.3155C36.3693 75.3761 36.5701 74.5163 36.9716 73.736C37.3731 72.9481 37.9527 72.3193 38.7102 71.8496C39.4754 71.3799 40.3996 71.1451 41.483 71.1451C42.6042 71.1451 43.5436 71.3799 44.3011 71.8496C45.0587 72.3193 45.6345 72.9481 46.0284 73.736C46.4223 74.5163 46.6193 75.3761 46.6193 76.3155V77.5428C46.6193 78.4822 46.4186 79.342 46.017 80.1223C45.6231 80.9026 45.0436 81.5276 44.2784 81.9973C43.5208 82.4595 42.589 82.6905 41.483 82.6905C40.3769 82.6905 39.4413 82.4557 38.6761 81.986C37.9186 81.5087 37.3428 80.8837 36.9489 80.111C36.5625 79.3307 36.3693 78.4746 36.3693 77.5428ZM39.6989 76.3155V77.5428C39.6989 78.0958 39.8277 78.6072 40.0852 79.0769C40.3504 79.5466 40.8163 79.7814 41.483 79.7814C42.1799 79.7814 42.6534 79.5466 42.9034 79.0769C43.161 78.6072 43.2898 78.0958 43.2898 77.5428V76.3155C43.2898 75.7625 43.1686 75.2473 42.9261 74.7701C42.6837 74.2928 42.2027 74.0542 41.483 74.0542C40.8087 74.0542 40.3428 74.2966 40.0852 74.7814C39.8277 75.2663 39.6989 75.7776 39.6989 76.3155ZM37.8693 95.2246L53.8693 71.9519H56.8466L40.8466 95.2246H37.8693Z" fill="#E61573"/>
</g>
<rect x="0.5" y="1.22461" width="174" height="120" rx="7.5" stroke="black" stroke-opacity="0.12"/>
<defs>
<filter id="filter0_f_409_5810" x="100" y="-34.8525" width="244" height="287" filterUnits="userSpaceOnUse" color-interpolation-filters="sRGB">
<feFlood flood-opacity="0" result="BackgroundImageFix"/>
<feBlend mode="normal" in="SourceGraphic" in2="BackgroundImageFix" result="shape"/>
<feGaussianBlur stdDeviation="30" result="effect1_foregroundBlur_409_5810"/>
</filter>
<linearGradient id="paint0_linear_409_5810" x1="175" y1="53.9406" x2="-360" y2="53.9406" gradientUnits="userSpaceOnUse">
<stop stop-color="#FFAC60" stop-opacity="0.6"/>
<stop offset="1" stop-color="#E61573" stop-opacity="0.6"/>
</linearGradient>
<clipPath id="clip0_409_5810">
<rect y="0.724609" width="175" height="121" rx="8" fill="white"/>
</clipPath>
</defs>
</svg>
