<svg width="175" height="122" viewBox="0 0 175 122" fill="none" xmlns="http://www.w3.org/2000/svg">
<g clip-path="url(#clip0_409_5794)">
<rect y="0.724609" width="175" height="121" rx="8" fill="url(#paint0_linear_409_5794)"/>
<g filter="url(#filter0_f_409_5794)">
<ellipse cx="222" cy="108.647" rx="62" ry="83.5" fill="#FFFCBD"/>
</g>
<path d="M24 16.9146L29 21.4146V29.2246H27V23.2246H21V29.2246H19V21.4146L24 16.9146ZM24 14.2246L14 23.2246H17V31.2246H23V25.2246H25V31.2246H31V23.2246H34L24 14.2246Z" fill="#E61573"/>
<path d="M12.7585 46.4973H15.0341L17.4375 52.361H17.5398L19.9432 46.4973H22.2188V55.2246H20.429V49.5442H20.3565L18.098 55.182H16.8793L14.6207 49.5229H14.5483V55.2246H12.7585V46.4973ZM26.6623 55.3525C26.0004 55.3525 25.4279 55.2118 24.945 54.9306C24.4648 54.6465 24.0941 54.2516 23.8327 53.7459C23.5714 53.2374 23.4407 52.6479 23.4407 51.9775C23.4407 51.3013 23.5714 50.7104 23.8327 50.2047C24.0941 49.6962 24.4648 49.3013 24.945 49.0201C25.4279 48.736 26.0004 48.5939 26.6623 48.5939C27.3242 48.5939 27.8952 48.736 28.3754 49.0201C28.8583 49.3013 29.2305 49.6962 29.4918 50.2047C29.7532 50.7104 29.8839 51.3013 29.8839 51.9775C29.8839 52.6479 29.7532 53.2374 29.4918 53.7459C29.2305 54.2516 28.8583 54.6465 28.3754 54.9306C27.8952 55.2118 27.3242 55.3525 26.6623 55.3525ZM26.6708 53.9462C26.9719 53.9462 27.2234 53.861 27.4251 53.6905C27.6268 53.5172 27.7788 53.2814 27.881 52.9831C27.9862 52.6848 28.0387 52.3453 28.0387 51.9647C28.0387 51.584 27.9862 51.2445 27.881 50.9462C27.7788 50.6479 27.6268 50.4121 27.4251 50.2388C27.2234 50.0655 26.9719 49.9789 26.6708 49.9789C26.3668 49.9789 26.1112 50.0655 25.9038 50.2388C25.6992 50.4121 25.5444 50.6479 25.4393 50.9462C25.337 51.2445 25.2859 51.584 25.2859 51.9647C25.2859 52.3453 25.337 52.6848 25.4393 52.9831C25.5444 53.2814 25.6992 53.5172 25.9038 53.6905C26.1112 53.861 26.3668 53.9462 26.6708 53.9462ZM31.0643 55.2246V48.6792H32.8242V49.8212H32.8924C33.0117 49.415 33.212 49.1081 33.4933 48.9007C33.7745 48.6905 34.0984 48.5854 34.4648 48.5854C34.5558 48.5854 34.6538 48.5911 34.7589 48.6024C34.864 48.6138 34.9563 48.6294 35.0359 48.6493V50.2601C34.9506 50.2346 34.8327 50.2118 34.6822 50.1919C34.5316 50.1721 34.3938 50.1621 34.2688 50.1621C34.0018 50.1621 33.7631 50.2203 33.5529 50.3368C33.3455 50.4505 33.1808 50.6096 33.0586 50.8141C32.9393 51.0186 32.8796 51.2544 32.8796 51.5215V55.2246H31.0643ZM39.7841 48.6792V50.0428H35.8423V48.6792H39.7841ZM36.7372 47.111H38.5526V53.2132C38.5526 53.3809 38.5781 53.5115 38.6293 53.6053C38.6804 53.6962 38.7514 53.7601 38.8423 53.7971C38.9361 53.834 39.044 53.8525 39.1662 53.8525C39.2514 53.8525 39.3366 53.8453 39.4219 53.8311C39.5071 53.8141 39.5724 53.8013 39.6179 53.7928L39.9034 55.1436C39.8125 55.1721 39.6847 55.2047 39.5199 55.2417C39.3551 55.2814 39.1548 55.3056 38.919 55.3141C38.4815 55.3311 38.098 55.2729 37.7685 55.1394C37.4418 55.0059 37.1875 54.7985 37.0057 54.5172C36.8239 54.236 36.7344 53.8809 36.7372 53.4519V47.111ZM43.8452 57.8155C43.2571 57.8155 42.7528 57.7346 42.3324 57.5726C41.9148 57.4135 41.5824 57.1962 41.3352 56.9206C41.0881 56.6451 40.9276 56.3354 40.8537 55.9917L42.5327 55.7658C42.5838 55.8965 42.6648 56.0186 42.7756 56.1323C42.8864 56.2459 43.0327 56.3368 43.2145 56.405C43.3991 56.476 43.6236 56.5115 43.8878 56.5115C44.2827 56.5115 44.608 56.415 44.8636 56.2218C45.1222 56.0314 45.2514 55.7118 45.2514 55.263V54.0655H45.1747C45.0952 54.2473 44.9759 54.4192 44.8168 54.5811C44.6577 54.7431 44.4531 54.8752 44.2031 54.9775C43.9531 55.0797 43.6548 55.1309 43.3082 55.1309C42.8168 55.1309 42.3693 55.0172 41.9659 54.79C41.5653 54.5598 41.2457 54.209 41.0071 53.7374C40.7713 53.263 40.6534 52.6635 40.6534 51.9391C40.6534 51.1976 40.7741 50.5783 41.0156 50.0811C41.2571 49.584 41.5781 49.2118 41.9787 48.9647C42.3821 48.7175 42.8239 48.5939 43.304 48.5939C43.6705 48.5939 43.9773 48.6564 44.2244 48.7814C44.4716 48.9036 44.6705 49.057 44.821 49.2417C44.9744 49.4235 45.0923 49.6025 45.1747 49.7786H45.2429V48.6792H47.0455V55.2885C47.0455 55.8453 46.9091 56.3113 46.6364 56.6863C46.3636 57.0613 45.9858 57.3425 45.5028 57.53C45.0227 57.7203 44.4702 57.8155 43.8452 57.8155ZM43.8835 53.7672C44.1761 53.7672 44.4233 53.6948 44.625 53.5499C44.8295 53.4022 44.9858 53.1919 45.0938 52.9192C45.2045 52.6436 45.2599 52.3141 45.2599 51.9306C45.2599 51.5471 45.206 51.2147 45.098 50.9334C44.9901 50.6493 44.8338 50.4292 44.6293 50.2729C44.4247 50.1167 44.1761 50.0385 43.8835 50.0385C43.5852 50.0385 43.3338 50.1195 43.1293 50.2814C42.9247 50.4405 42.7699 50.6621 42.6648 50.9462C42.5597 51.2303 42.5071 51.5584 42.5071 51.9306C42.5071 52.3084 42.5597 52.6351 42.6648 52.9107C42.7727 53.1834 42.9276 53.3951 43.1293 53.5456C43.3338 53.6934 43.5852 53.7672 43.8835 53.7672ZM50.3565 55.3482C49.9389 55.3482 49.5668 55.2757 49.2401 55.1309C48.9134 54.9831 48.6548 54.7658 48.4645 54.4789C48.277 54.1891 48.1832 53.8283 48.1832 53.3965C48.1832 53.0328 48.25 52.7275 48.3835 52.4803C48.517 52.2331 48.6989 52.0343 48.929 51.8837C49.1591 51.7331 49.4205 51.6195 49.7131 51.5428C50.0085 51.4661 50.3182 51.4121 50.642 51.3809C51.0227 51.3411 51.3295 51.3042 51.5625 51.2701C51.7955 51.2331 51.9645 51.1792 52.0696 51.1081C52.1747 51.0371 52.2273 50.932 52.2273 50.7928V50.7672C52.2273 50.4973 52.142 50.2885 51.9716 50.1408C51.804 49.9931 51.5653 49.9192 51.2557 49.9192C50.929 49.9192 50.669 49.9917 50.4759 50.1365C50.2827 50.2786 50.1548 50.4576 50.0923 50.6735L48.4134 50.5371C48.4986 50.1394 48.6662 49.7956 48.9162 49.5059C49.1662 49.2132 49.4886 48.9888 49.8835 48.8326C50.2813 48.6735 50.7415 48.5939 51.2642 48.5939C51.6278 48.5939 51.9759 48.6365 52.3082 48.7218C52.6435 48.807 52.9403 48.9391 53.1989 49.1181C53.4602 49.2971 53.6662 49.5272 53.8168 49.8084C53.9673 50.0868 54.0426 50.4206 54.0426 50.8098V55.2246H52.321V54.3169H52.2699C52.1648 54.5215 52.0241 54.7019 51.848 54.8581C51.6719 55.0115 51.4602 55.1323 51.2131 55.2203C50.9659 55.3056 50.6804 55.3482 50.3565 55.3482ZM50.8764 54.0953C51.1435 54.0953 51.3793 54.0428 51.5838 53.9377C51.7884 53.8297 51.9489 53.6848 52.0653 53.503C52.1818 53.3212 52.2401 53.1152 52.2401 52.8851V52.1905C52.1832 52.2275 52.1051 52.2615 52.0057 52.2928C51.9091 52.3212 51.7997 52.3482 51.6776 52.3738C51.5554 52.3965 51.4332 52.4178 51.3111 52.4377C51.1889 52.4547 51.0781 52.4703 50.9787 52.4846C50.7656 52.5158 50.5795 52.5655 50.4205 52.6337C50.2614 52.7019 50.1378 52.7942 50.0497 52.9107C49.9616 53.0243 49.9176 53.1664 49.9176 53.3368C49.9176 53.584 50.0071 53.7729 50.1861 53.9036C50.3679 54.0314 50.598 54.0953 50.8764 54.0953ZM58.3999 57.8155C57.8118 57.8155 57.3075 57.7346 56.8871 57.5726C56.4695 57.4135 56.1371 57.1962 55.8899 56.9206C55.6428 56.6451 55.4822 56.3354 55.4084 55.9917L57.0874 55.7658C57.1385 55.8965 57.2195 56.0186 57.3303 56.1323C57.4411 56.2459 57.5874 56.3368 57.7692 56.405C57.9538 56.476 58.1783 56.5115 58.4425 56.5115C58.8374 56.5115 59.1626 56.415 59.4183 56.2218C59.6768 56.0314 59.8061 55.7118 59.8061 55.263V54.0655H59.7294C59.6499 54.2473 59.5305 54.4192 59.3714 54.5811C59.2124 54.7431 59.0078 54.8752 58.7578 54.9775C58.5078 55.0797 58.2095 55.1309 57.8629 55.1309C57.3714 55.1309 56.924 55.0172 56.5206 54.79C56.12 54.5598 55.8004 54.209 55.5618 53.7374C55.326 53.263 55.2081 52.6635 55.2081 51.9391C55.2081 51.1976 55.3288 50.5783 55.5703 50.0811C55.8118 49.584 56.1328 49.2118 56.5334 48.9647C56.9368 48.7175 57.3786 48.5939 57.8587 48.5939C58.2251 48.5939 58.532 48.6564 58.7791 48.7814C59.0263 48.9036 59.2251 49.057 59.3757 49.2417C59.5291 49.4235 59.647 49.6025 59.7294 49.7786H59.7976V48.6792H61.6001V55.2885C61.6001 55.8453 61.4638 56.3113 61.1911 56.6863C60.9183 57.0613 60.5405 57.3425 60.0575 57.53C59.5774 57.7203 59.0249 57.8155 58.3999 57.8155ZM58.4382 53.7672C58.7308 53.7672 58.978 53.6948 59.1797 53.5499C59.3842 53.4022 59.5405 53.1919 59.6484 52.9192C59.7592 52.6436 59.8146 52.3141 59.8146 51.9306C59.8146 51.5471 59.7607 51.2147 59.6527 50.9334C59.5447 50.6493 59.3885 50.4292 59.1839 50.2729C58.9794 50.1167 58.7308 50.0385 58.4382 50.0385C58.1399 50.0385 57.8885 50.1195 57.6839 50.2814C57.4794 50.4405 57.3246 50.6621 57.2195 50.9462C57.1143 51.2303 57.0618 51.5584 57.0618 51.9306C57.0618 52.3084 57.1143 52.6351 57.2195 52.9107C57.3274 53.1834 57.4822 53.3951 57.6839 53.5456C57.8885 53.6934 58.1399 53.7672 58.4382 53.7672ZM66.0277 55.3525C65.3544 55.3525 64.7749 55.2161 64.2891 54.9434C63.8061 54.6678 63.4339 54.2786 63.1726 53.7757C62.9112 53.2701 62.7805 52.6721 62.7805 51.9817C62.7805 51.3084 62.9112 50.7175 63.1726 50.209C63.4339 49.7005 63.8018 49.3042 64.2763 49.0201C64.7536 48.736 65.3132 48.5939 65.9553 48.5939C66.3871 48.5939 66.7891 48.6635 67.1612 48.8027C67.5362 48.9391 67.8629 49.1451 68.1413 49.4206C68.4226 49.6962 68.6413 50.0428 68.7976 50.4604C68.9538 50.8752 69.032 51.361 69.032 51.9178V52.4164H63.505V51.2914H67.3232C67.3232 51.03 67.2663 50.7985 67.1527 50.5968C67.0391 50.3951 66.8814 50.2374 66.6797 50.1238C66.4808 50.0073 66.2493 49.949 65.9851 49.949C65.7095 49.949 65.4652 50.013 65.2521 50.1408C65.0419 50.2658 64.8771 50.4348 64.7578 50.6479C64.6385 50.8581 64.5774 51.0925 64.5746 51.351V52.4206C64.5746 52.7445 64.6342 53.0243 64.7536 53.2601C64.8757 53.4959 65.0476 53.6777 65.2692 53.8056C65.4908 53.9334 65.7536 53.9973 66.0575 53.9973C66.2592 53.9973 66.4439 53.9689 66.6115 53.9121C66.7791 53.8553 66.9226 53.7701 67.0419 53.6564C67.1612 53.5428 67.2521 53.4036 67.3146 53.2388L68.9936 53.3496C68.9084 53.753 68.7337 54.1053 68.4695 54.4064C68.2081 54.7047 67.87 54.9377 67.4553 55.1053C67.0433 55.2701 66.5675 55.3525 66.0277 55.3525ZM74.8604 55.3482C74.4428 55.3482 74.0707 55.2757 73.744 55.1309C73.4173 54.9831 73.1587 54.7658 72.9684 54.4789C72.7809 54.1891 72.6871 53.8283 72.6871 53.3965C72.6871 53.0328 72.7539 52.7275 72.8874 52.4803C73.021 52.2331 73.2028 52.0343 73.4329 51.8837C73.663 51.7331 73.9244 51.6195 74.217 51.5428C74.5124 51.4661 74.8221 51.4121 75.146 51.3809C75.5266 51.3411 75.8335 51.3042 76.0664 51.2701C76.2994 51.2331 76.4684 51.1792 76.5735 51.1081C76.6786 51.0371 76.7312 50.932 76.7312 50.7928V50.7672C76.7312 50.4973 76.646 50.2885 76.4755 50.1408C76.3079 49.9931 76.0692 49.9192 75.7596 49.9192C75.4329 49.9192 75.1729 49.9917 74.9798 50.1365C74.7866 50.2786 74.6587 50.4576 74.5962 50.6735L72.9173 50.5371C73.0025 50.1394 73.1701 49.7956 73.4201 49.5059C73.6701 49.2132 73.9925 48.9888 74.3874 48.8326C74.7852 48.6735 75.2454 48.5939 75.7681 48.5939C76.1317 48.5939 76.4798 48.6365 76.8121 48.7218C77.1474 48.807 77.4442 48.9391 77.7028 49.1181C77.9641 49.2971 78.1701 49.5272 78.3207 49.8084C78.4712 50.0868 78.5465 50.4206 78.5465 50.8098V55.2246H76.8249V54.3169H76.7738C76.6687 54.5215 76.5281 54.7019 76.3519 54.8581C76.1758 55.0115 75.9641 55.1323 75.717 55.2203C75.4698 55.3056 75.1843 55.3482 74.8604 55.3482ZM75.3803 54.0953C75.6474 54.0953 75.8832 54.0428 76.0877 53.9377C76.2923 53.8297 76.4528 53.6848 76.5692 53.503C76.6857 53.3212 76.744 53.1152 76.744 52.8851V52.1905C76.6871 52.2275 76.609 52.2615 76.5096 52.2928C76.413 52.3212 76.3036 52.3482 76.1815 52.3738C76.0593 52.3965 75.9371 52.4178 75.815 52.4377C75.6928 52.4547 75.582 52.4703 75.4826 52.4846C75.2695 52.5158 75.0835 52.5655 74.9244 52.6337C74.7653 52.7019 74.6417 52.7942 74.5536 52.9107C74.4656 53.0243 74.4215 53.1664 74.4215 53.3368C74.4215 53.584 74.511 53.7729 74.69 53.9036C74.8718 54.0314 75.1019 54.0953 75.3803 54.0953ZM83.4364 48.6792V50.0428H79.4947V48.6792H83.4364ZM80.3896 47.111H82.2049V53.2132C82.2049 53.3809 82.2305 53.5115 82.2816 53.6053C82.3327 53.6962 82.4038 53.7601 82.4947 53.7971C82.5884 53.834 82.6964 53.8525 82.8185 53.8525C82.9038 53.8525 82.989 53.8453 83.0742 53.8311C83.1594 53.8141 83.2248 53.8013 83.2702 53.7928L83.5558 55.1436C83.4648 55.1721 83.337 55.2047 83.1722 55.2417C83.0075 55.2814 82.8072 55.3056 82.5714 55.3141C82.1339 55.3311 81.7504 55.2729 81.4208 55.1394C81.0941 55.0059 80.8398 54.7985 80.658 54.5172C80.4762 54.236 80.3867 53.8809 80.3896 53.4519V47.111ZM94.9464 95.2246H92.9691L95.9819 86.4973H98.3597L101.368 95.2246H99.391L97.2049 88.4917H97.1367L94.9464 95.2246ZM94.8228 91.7942H99.4933V93.2346H94.8228V91.7942ZM102.419 95.2246V86.4973H105.862C106.524 86.4973 107.088 86.6238 107.554 86.8766C108.02 87.1266 108.375 87.4746 108.619 87.9206C108.866 88.3638 108.99 88.8752 108.99 89.4547C108.99 90.0343 108.865 90.5456 108.615 90.9888C108.365 91.432 108.002 91.7772 107.528 92.0243C107.056 92.2715 106.485 92.3951 105.815 92.3951H103.62V90.9164H105.517C105.872 90.9164 106.164 90.8553 106.395 90.7331C106.627 90.6081 106.801 90.4363 106.914 90.2175C107.031 89.9959 107.089 89.7417 107.089 89.4547C107.089 89.1649 107.031 88.9121 106.914 88.6962C106.801 88.4774 106.627 88.3084 106.395 88.1891C106.162 88.0669 105.866 88.0059 105.508 88.0059H104.264V95.2246H102.419ZM110.188 95.2246V86.4973H113.631C114.29 86.4973 114.853 86.6152 115.319 86.851C115.788 87.084 116.144 87.415 116.388 87.8439C116.636 88.2701 116.759 88.7715 116.759 89.3482C116.759 89.9277 116.634 90.4263 116.384 90.8439C116.134 91.2587 115.772 91.5769 115.298 91.7985C114.826 92.0201 114.255 92.1309 113.585 92.1309H111.279V90.6479H113.286C113.638 90.6479 113.931 90.5996 114.164 90.503C114.397 90.4064 114.57 90.2615 114.684 90.0684C114.8 89.8752 114.859 89.6351 114.859 89.3482C114.859 89.0584 114.8 88.8141 114.684 88.6152C114.57 88.4164 114.396 88.2658 114.16 88.1635C113.927 88.0584 113.633 88.0059 113.278 88.0059H112.033V95.2246H110.188ZM114.901 91.253L117.07 95.2246H115.033L112.911 91.253H114.901ZM120.198 86.4973L120.032 92.6081H118.472L118.302 86.4973H120.198ZM119.252 95.3354C118.971 95.3354 118.729 95.236 118.528 95.0371C118.326 94.8354 118.227 94.5939 118.229 94.3127C118.227 94.0343 118.326 93.7956 118.528 93.5968C118.729 93.3979 118.971 93.2985 119.252 93.2985C119.522 93.2985 119.759 93.3979 119.964 93.5968C120.168 93.7956 120.272 94.0343 120.275 94.3127C120.272 94.5002 120.222 94.6721 120.126 94.8283C120.032 94.9817 119.908 95.1053 119.755 95.199C119.602 95.29 119.434 95.3354 119.252 95.3354Z" fill="#231F20"/>
<path d="M22.4886 95.5428C20.7917 95.5428 19.2803 95.2511 17.9545 94.6678C16.6364 94.0769 15.5947 93.2663 14.8295 92.236C14.072 91.1981 13.6818 90.0011 13.6591 88.6451H18.6136C18.6439 89.2132 18.8295 89.7132 19.1705 90.1451C19.5189 90.5693 19.9811 90.8989 20.5568 91.1337C21.1326 91.3685 21.7803 91.486 22.5 91.486C23.25 91.486 23.9129 91.3534 24.4886 91.0882C25.0644 90.8231 25.5152 90.4557 25.8409 89.986C26.1667 89.5163 26.3295 88.9746 26.3295 88.361C26.3295 87.7398 26.1553 87.1905 25.8068 86.7132C25.4659 86.2284 24.9735 85.8496 24.3295 85.5769C23.6932 85.3042 22.9356 85.1678 22.0568 85.1678H19.8864V81.5542H22.0568C22.7992 81.5542 23.4545 81.4254 24.0227 81.1678C24.5985 80.9102 25.0455 80.5542 25.3636 80.0996C25.6818 79.6375 25.8409 79.0996 25.8409 78.486C25.8409 77.9026 25.7008 77.3913 25.4205 76.9519C25.1477 76.5049 24.7614 76.1564 24.2614 75.9064C23.7689 75.6564 23.1932 75.5314 22.5341 75.5314C21.8674 75.5314 21.2576 75.6526 20.7045 75.8951C20.1515 76.1299 19.7083 76.467 19.375 76.9064C19.0417 77.3458 18.8636 77.861 18.8409 78.4519H14.125C14.1477 77.111 14.5303 75.9292 15.2727 74.9064C16.0152 73.8837 17.0152 73.0845 18.2727 72.5087C19.5379 71.9254 20.9659 71.6337 22.5568 71.6337C24.1629 71.6337 25.5682 71.9254 26.7727 72.5087C27.9773 73.092 28.9129 73.8799 29.5795 74.8723C30.2538 75.8572 30.5871 76.9632 30.5795 78.1905C30.5871 79.4935 30.1818 80.5807 29.3636 81.4519C28.553 82.3231 27.4962 82.8761 26.1932 83.111V83.2928C27.9053 83.5125 29.2083 84.1072 30.1023 85.0769C31.0038 86.039 31.4508 87.2435 31.4432 88.6905C31.4508 90.0163 31.0682 91.1943 30.2955 92.2246C29.5303 93.2549 28.4735 94.0655 27.125 94.6564C25.7765 95.2473 24.2311 95.5428 22.4886 95.5428ZM37.1989 95.5201C36.4489 95.5201 35.8049 95.2549 35.267 94.7246C34.7367 94.1867 34.4716 93.5428 34.4716 92.7928C34.4716 92.0504 34.7367 91.414 35.267 90.8837C35.8049 90.3534 36.4489 90.0882 37.1989 90.0882C37.9261 90.0882 38.5625 90.3534 39.108 90.8837C39.6534 91.414 39.9261 92.0504 39.9261 92.7928C39.9261 93.2928 39.7973 93.7511 39.5398 94.1678C39.2898 94.5769 38.9602 94.9064 38.5511 95.1564C38.142 95.3989 37.6913 95.5201 37.1989 95.5201ZM52.1676 95.5428C50.5616 95.5428 49.1297 95.2473 47.8722 94.6564C46.6222 94.0655 45.6297 93.2511 44.8949 92.2132C44.16 91.1754 43.7775 89.986 43.7472 88.6451H48.5199C48.5729 89.5466 48.9517 90.2776 49.6562 90.8382C50.3608 91.3989 51.1979 91.6792 52.1676 91.6792C52.9403 91.6792 53.6222 91.5087 54.2131 91.1678C54.8116 90.8193 55.2775 90.3382 55.6108 89.7246C55.9517 89.1034 56.1222 88.3913 56.1222 87.5882C56.1222 86.7701 55.9479 86.0504 55.5994 85.4292C55.2585 84.8079 54.785 84.3231 54.179 83.9746C53.5729 83.6261 52.8797 83.4481 52.0994 83.4405C51.4176 83.4405 50.7547 83.5807 50.1108 83.861C49.4744 84.1413 48.9782 84.5239 48.6222 85.0087L44.2472 84.2246L45.3494 71.9519H59.5767V75.9746H49.4062L48.804 81.8042H48.9403C49.3494 81.2284 49.9669 80.7511 50.7926 80.3723C51.6184 79.9935 52.5426 79.8042 53.5653 79.8042C54.9669 79.8042 56.2169 80.1337 57.3153 80.7928C58.4138 81.4519 59.2812 82.3572 59.9176 83.5087C60.554 84.6526 60.8684 85.9708 60.8608 87.4632C60.8684 89.0314 60.5047 90.4254 59.7699 91.6451C59.0426 92.8572 58.0237 93.8117 56.7131 94.5087C55.41 95.1981 53.8949 95.5428 52.1676 95.5428ZM77.0312 90.861V89.6337C77.0312 88.7019 77.2282 87.8458 77.6222 87.0655C78.0237 86.2776 78.6032 85.6489 79.3608 85.1792C80.1259 84.7019 81.0578 84.4632 82.1562 84.4632C83.2699 84.4632 84.2055 84.6981 84.9631 85.1678C85.7282 85.6375 86.304 86.2663 86.6903 87.0542C87.0843 87.8345 87.2812 88.6943 87.2812 89.6337V90.861C87.2812 91.7928 87.0843 92.6526 86.6903 93.4405C86.2964 94.2208 85.7169 94.8458 84.9517 95.3155C84.1866 95.7928 83.2547 96.0314 82.1562 96.0314C81.0426 96.0314 80.107 95.7928 79.3494 95.3155C78.5919 94.8458 78.0161 94.2208 77.6222 93.4405C77.2282 92.6526 77.0312 91.7928 77.0312 90.861ZM80.3381 89.6337V90.861C80.3381 91.3989 80.4669 91.9064 80.7244 92.3837C80.9896 92.861 81.4669 93.0996 82.1562 93.0996C82.8456 93.0996 83.3153 92.8648 83.5653 92.3951C83.8229 91.9254 83.9517 91.414 83.9517 90.861V89.6337C83.9517 89.0807 83.8305 88.5655 83.5881 88.0882C83.3456 87.611 82.8684 87.3723 82.1562 87.3723C81.4744 87.3723 81.0009 87.611 80.7358 88.0882C80.4706 88.5655 80.3381 89.0807 80.3381 89.6337ZM65.0881 77.5428V76.3155C65.0881 75.3761 65.2888 74.5163 65.6903 73.736C66.0919 72.9481 66.6714 72.3193 67.429 71.8496C68.1941 71.3799 69.1184 71.1451 70.2017 71.1451C71.3229 71.1451 72.2623 71.3799 73.0199 71.8496C73.7775 72.3193 74.3532 72.9481 74.7472 73.736C75.1411 74.5163 75.3381 75.3761 75.3381 76.3155V77.5428C75.3381 78.4822 75.1373 79.342 74.7358 80.1223C74.3419 80.9026 73.7623 81.5276 72.9972 81.9973C72.2396 82.4595 71.3078 82.6905 70.2017 82.6905C69.0956 82.6905 68.16 82.4557 67.3949 81.986C66.6373 81.5087 66.0616 80.8837 65.6676 80.111C65.2813 79.3307 65.0881 78.4746 65.0881 77.5428ZM68.4176 76.3155V77.5428C68.4176 78.0958 68.5464 78.6072 68.804 79.0769C69.0691 79.5466 69.535 79.7814 70.2017 79.7814C70.8987 79.7814 71.3722 79.5466 71.6222 79.0769C71.8797 78.6072 72.0085 78.0958 72.0085 77.5428V76.3155C72.0085 75.7625 71.8873 75.2473 71.6449 74.7701C71.4025 74.2928 70.9214 74.0542 70.2017 74.0542C69.5275 74.0542 69.0616 74.2966 68.804 74.7814C68.5464 75.2663 68.4176 75.7776 68.4176 76.3155ZM66.5881 95.2246L82.5881 71.9519H85.5653L69.5653 95.2246H66.5881Z" fill="#E61573"/>
</g>
<rect x="0.5" y="1.22461" width="174" height="120" rx="7.5" stroke="black" stroke-opacity="0.12"/>
<defs>
<filter id="filter0_f_409_5794" x="100" y="-34.8525" width="244" height="287" filterUnits="userSpaceOnUse" color-interpolation-filters="sRGB">
<feFlood flood-opacity="0" result="BackgroundImageFix"/>
<feBlend mode="normal" in="SourceGraphic" in2="BackgroundImageFix" result="shape"/>
<feGaussianBlur stdDeviation="30" result="effect1_foregroundBlur_409_5794"/>
</filter>
<linearGradient id="paint0_linear_409_5794" x1="175" y1="53.9406" x2="-360" y2="53.9406" gradientUnits="userSpaceOnUse">
<stop stop-color="#FFAC60" stop-opacity="0.6"/>
<stop offset="1" stop-color="#E61573" stop-opacity="0.6"/>
</linearGradient>
<clipPath id="clip0_409_5794">
<rect y="0.724609" width="175" height="121" rx="8" fill="white"/>
</clipPath>
</defs>
</svg>
