<svg width="40" height="40" viewBox="0 0 40 40" fill="none" xmlns="http://www.w3.org/2000/svg">
<rect width="40" height="40" rx="20" fill="black" fill-opacity="0.04"/>
<path d="M20 26C18.4087 26 16.8826 25.3679 15.7574 24.2426C14.6321 23.1174 14 21.5913 14 20C14 18.4087 14.6321 16.8826 15.7574 15.7574C16.8826 14.6321 18.4087 14 20 14C21.5913 14 23.1174 14.6321 24.2426 15.7574C25.3679 16.8826 26 18.4087 26 20C26 21.5913 25.3679 23.1174 24.2426 24.2426C23.1174 25.3679 21.5913 26 20 26ZM19 9H21V12H19V9ZM19 28H21V31H19V28ZM11.515 12.929L12.929 11.515L15.05 13.636L13.636 15.05L11.515 12.929ZM24.95 26.364L26.364 24.95L28.485 27.071L27.071 28.485L24.95 26.364ZM27.071 11.514L28.485 12.929L26.364 15.05L24.95 13.636L27.071 11.514ZM13.636 24.95L15.05 26.364L12.929 28.485L11.515 27.071L13.636 24.95ZM31 19V21H28V19H31ZM12 19V21H9V19H12Z" fill="black"/>
</svg>
