<svg width="336" height="18" viewBox="0 0 336 18" fill="none" xmlns="http://www.w3.org/2000/svg">
<line y1="8.5" x2="110" y2="8.5" stroke="#222222"/>
<path d="M135.981 8.90909C135.981 9.98295 135.787 10.911 135.399 11.6932C135.012 12.4754 134.48 13.0786 133.804 13.5028C133.127 13.9271 132.355 14.1392 131.487 14.1392C130.618 14.1392 129.846 13.9271 129.17 13.5028C128.494 13.0786 127.962 12.4754 127.574 11.6932C127.186 10.911 126.992 9.98295 126.992 8.90909C126.992 7.83523 127.186 6.9072 127.574 6.125C127.962 5.3428 128.494 4.73958 129.17 4.31534C129.846 3.8911 130.618 3.67898 131.487 3.67898C132.355 3.67898 133.127 3.8911 133.804 4.31534C134.48 4.73958 135.012 5.3428 135.399 6.125C135.787 6.9072 135.981 7.83523 135.981 8.90909ZM134.788 8.90909C134.788 8.02746 134.64 7.28338 134.345 6.67685C134.054 6.07031 133.658 5.61127 133.157 5.29972C132.66 4.98816 132.103 4.83239 131.487 4.83239C130.87 4.83239 130.312 4.98816 129.811 5.29972C129.314 5.61127 128.918 6.07031 128.623 6.67685C128.331 7.28338 128.186 8.02746 128.186 8.90909C128.186 9.79072 128.331 10.5348 128.623 11.1413C128.918 11.7479 129.314 12.2069 129.811 12.5185C130.312 12.83 130.87 12.9858 131.487 12.9858C132.103 12.9858 132.66 12.83 133.157 12.5185C133.658 12.2069 134.054 11.7479 134.345 11.1413C134.64 10.5348 134.788 9.79072 134.788 8.90909ZM137.895 14V6.36364H139.029V7.51705H139.108C139.247 7.1392 139.499 6.83262 139.864 6.5973C140.228 6.36198 140.639 6.24432 141.097 6.24432C141.183 6.24432 141.291 6.24597 141.42 6.24929C141.549 6.2526 141.647 6.25758 141.713 6.2642V7.45739C141.674 7.44744 141.582 7.43253 141.44 7.41264C141.301 7.38944 141.153 7.37784 140.997 7.37784C140.626 7.37784 140.295 7.45573 140.003 7.61151C139.715 7.76397 139.486 7.97609 139.317 8.24787C139.151 8.51634 139.068 8.82292 139.068 9.16761V14H137.895ZM148.215 3.81818V14H147.042V3.81818H148.215ZM153.466 14.1591C152.777 14.1591 152.172 13.995 151.652 13.6669C151.134 13.3388 150.73 12.8797 150.438 12.2898C150.15 11.6998 150.006 11.0104 150.006 10.2216C150.006 9.42614 150.15 8.73177 150.438 8.13849C150.73 7.54522 151.134 7.08452 151.652 6.75639C152.172 6.42827 152.777 6.2642 153.466 6.2642C154.156 6.2642 154.759 6.42827 155.276 6.75639C155.796 7.08452 156.201 7.54522 156.489 8.13849C156.781 8.73177 156.926 9.42614 156.926 10.2216C156.926 11.0104 156.781 11.6998 156.489 12.2898C156.201 12.8797 155.796 13.3388 155.276 13.6669C154.759 13.995 154.156 14.1591 153.466 14.1591ZM153.466 13.1051C153.99 13.1051 154.421 12.9709 154.759 12.7024C155.097 12.4339 155.347 12.081 155.509 11.6435C155.672 11.206 155.753 10.732 155.753 10.2216C155.753 9.71117 155.672 9.23556 155.509 8.79474C155.347 8.35393 155.097 7.99763 154.759 7.72585C154.421 7.45407 153.99 7.31818 153.466 7.31818C152.943 7.31818 152.512 7.45407 152.174 7.72585C151.835 7.99763 151.585 8.35393 151.423 8.79474C151.26 9.23556 151.179 9.71117 151.179 10.2216C151.179 10.732 151.26 11.206 151.423 11.6435C151.585 12.081 151.835 12.4339 152.174 12.7024C152.512 12.9709 152.943 13.1051 153.466 13.1051ZM161.8 17.0227C161.233 17.0227 160.746 16.9498 160.338 16.804C159.93 16.6615 159.591 16.4725 159.319 16.2372C159.051 16.0052 158.837 15.7566 158.678 15.4915L159.612 14.8352C159.718 14.9744 159.853 15.1335 160.015 15.3125C160.177 15.4948 160.399 15.6522 160.681 15.7848C160.966 15.9207 161.339 15.9886 161.8 15.9886C162.416 15.9886 162.925 15.8395 163.326 15.5412C163.727 15.2429 163.928 14.7756 163.928 14.1392V12.5881H163.828C163.742 12.7273 163.619 12.8996 163.46 13.1051C163.305 13.3073 163.079 13.4879 162.784 13.647C162.493 13.8028 162.098 13.8807 161.601 13.8807C160.984 13.8807 160.431 13.7348 159.94 13.4432C159.453 13.1515 159.067 12.7273 158.782 12.1705C158.5 11.6136 158.359 10.9375 158.359 10.142C158.359 9.35985 158.497 8.67874 158.772 8.09872C159.047 7.51539 159.43 7.06463 159.921 6.74645C160.411 6.42495 160.978 6.2642 161.621 6.2642C162.118 6.2642 162.512 6.34706 162.804 6.51278C163.099 6.67519 163.324 6.8608 163.48 7.0696C163.639 7.27509 163.762 7.44413 163.848 7.5767H163.967V6.36364H165.101V14.2188C165.101 14.875 164.952 15.4086 164.653 15.8196C164.359 16.2339 163.961 16.5372 163.46 16.7294C162.963 16.925 162.41 17.0227 161.8 17.0227ZM161.76 12.8267C162.231 12.8267 162.628 12.719 162.953 12.5036C163.278 12.2881 163.525 11.9782 163.694 11.5739C163.863 11.1695 163.948 10.6856 163.948 10.1222C163.948 9.57197 163.865 9.08641 163.699 8.66548C163.533 8.24455 163.288 7.91477 162.963 7.67614C162.638 7.4375 162.237 7.31818 161.76 7.31818C161.263 7.31818 160.849 7.44413 160.517 7.69602C160.189 7.94792 159.942 8.28598 159.776 8.71023C159.614 9.13447 159.533 9.60511 159.533 10.1222C159.533 10.6525 159.616 11.1214 159.781 11.5291C159.95 11.9335 160.199 12.2517 160.527 12.4837C160.859 12.7124 161.27 12.8267 161.76 12.8267ZM167.249 14V6.36364H168.422V14H167.249ZM167.845 5.09091C167.617 5.09091 167.419 5.01302 167.254 4.85724C167.091 4.70147 167.01 4.5142 167.01 4.29545C167.01 4.0767 167.091 3.88944 167.254 3.73366C167.419 3.57789 167.617 3.5 167.845 3.5C168.074 3.5 168.27 3.57789 168.432 3.73366C168.598 3.88944 168.68 4.0767 168.68 4.29545C168.68 4.5142 168.598 4.70147 168.432 4.85724C168.27 5.01302 168.074 5.09091 167.845 5.09091ZM171.744 9.40625V14H170.571V6.36364H171.704V7.55682H171.804C171.983 7.16903 172.255 6.85748 172.619 6.62216C172.984 6.38352 173.454 6.2642 174.031 6.2642C174.548 6.2642 175.001 6.37027 175.388 6.58239C175.776 6.79119 176.078 7.10938 176.293 7.53693C176.509 7.96117 176.616 8.49811 176.616 9.14773V14H175.443V9.22727C175.443 8.62737 175.287 8.16004 174.976 7.82528C174.664 7.48722 174.237 7.31818 173.693 7.31818C173.319 7.31818 172.984 7.39938 172.689 7.56179C172.397 7.72419 172.167 7.96117 171.998 8.27273C171.829 8.58428 171.744 8.96212 171.744 9.40625ZM184.428 14L182.101 6.36364H183.334L184.985 12.2102H185.064L186.695 6.36364H187.948L189.559 12.1903H189.638L191.289 6.36364H192.522L190.195 14H189.042L187.371 8.13352H187.252L185.581 14H184.428ZM194.073 14V6.36364H195.246V14H194.073ZM194.669 5.09091C194.441 5.09091 194.244 5.01302 194.078 4.85724C193.915 4.70147 193.834 4.5142 193.834 4.29545C193.834 4.0767 193.915 3.88944 194.078 3.73366C194.244 3.57789 194.441 3.5 194.669 3.5C194.898 3.5 195.094 3.57789 195.256 3.73366C195.422 3.88944 195.505 4.0767 195.505 4.29545C195.505 4.5142 195.422 4.70147 195.256 4.85724C195.094 5.01302 194.898 5.09091 194.669 5.09091ZM200.716 6.36364V7.35795H196.759V6.36364H200.716ZM197.912 4.53409H199.085V11.8125C199.085 12.1439 199.134 12.3925 199.23 12.5582C199.329 12.7206 199.455 12.83 199.608 12.8864C199.763 12.9394 199.927 12.9659 200.1 12.9659C200.229 12.9659 200.335 12.9593 200.418 12.946C200.501 12.9295 200.567 12.9162 200.617 12.9062L200.855 13.9602C200.776 13.9901 200.665 14.0199 200.522 14.0497C200.38 14.0829 200.199 14.0994 199.98 14.0994C199.649 14.0994 199.324 14.0282 199.006 13.8857C198.691 13.7431 198.429 13.526 198.22 13.2344C198.015 12.9427 197.912 12.5748 197.912 12.1307V4.53409ZM203.818 9.40625V14H202.645V3.81818H203.818V7.55682H203.918C204.097 7.16241 204.365 6.84919 204.723 6.61719C205.085 6.38187 205.565 6.2642 206.165 6.2642C206.685 6.2642 207.141 6.36861 207.532 6.57741C207.923 6.78291 208.227 7.09943 208.442 7.52699C208.661 7.95123 208.77 8.49148 208.77 9.14773V14H207.597V9.22727C207.597 8.62074 207.439 8.15175 207.125 7.82031C206.813 7.48556 206.38 7.31818 205.827 7.31818C205.443 7.31818 205.098 7.39938 204.793 7.56179C204.491 7.72419 204.253 7.96117 204.077 8.27273C203.905 8.58428 203.818 8.96212 203.818 9.40625Z" fill="#222222"/>
<line x1="226" y1="8.5" x2="336" y2="8.5" stroke="#222222"/>
</svg>
