<svg width="414" height="481" viewBox="0 0 414 481" fill="none" xmlns="http://www.w3.org/2000/svg">
<circle cx="207.5" cy="264.5" r="102" stroke="url(#paint0_linear_409_5591)" stroke-opacity="0.12"/>
<circle cx="208.5" cy="264.5" r="164" stroke="url(#paint1_linear_409_5591)" stroke-opacity="0.12"/>
<circle cx="207" cy="254" r="226.5" stroke="url(#paint2_linear_409_5591)" stroke-opacity="0.12"/>
<rect x="79" y="112" width="49" height="49" rx="8" fill="#FCDFC4"/>
<g clip-path="url(#clip0_409_5591)">
<path d="M102.21 125.666H99.834V134.393H102.21V125.666Z" fill="black"/>
<path d="M95.9536 129.273H93.5771V134.393H95.9536V129.273Z" fill="black"/>
<path d="M99.0855 125.316V122H96.709V128.924V134.393H99.0855V125.316Z" fill="black"/>
<path d="M92.8228 128.924V126.364H90.4463V128.924V134.393H92.8228V128.924Z" fill="black"/>
<path d="M89.6909 129.273H87.3145V134.393H89.6909V129.273Z" fill="black"/>
<path d="M118.246 151.091H109.606C109.42 151.091 109.229 151.265 109.229 151.44C109.229 151.614 109.414 151.789 109.606 151.789H118.246C118.431 151.789 118.623 151.614 118.623 151.44C118.623 151.265 118.437 151.091 118.246 151.091Z" fill="black"/>
<path d="M118.246 148.938H109.606C109.42 148.938 109.229 149.113 109.229 149.287C109.229 149.462 109.414 149.636 109.606 149.636H118.246C118.431 149.636 118.623 149.462 118.623 149.287C118.623 149.113 118.437 148.938 118.246 148.938Z" fill="black"/>
<path d="M118.246 146.727H109.606C109.42 146.727 109.229 146.902 109.229 147.076C109.229 147.251 109.414 147.425 109.606 147.425H118.246C118.431 147.425 118.623 147.251 118.623 147.076C118.623 146.902 118.437 146.727 118.246 146.727Z" fill="black"/>
<path d="M118.246 144.575H109.606C109.42 144.575 109.229 144.749 109.229 144.924C109.229 145.098 109.414 145.273 109.606 145.273H118.246C118.431 145.273 118.623 145.098 118.623 144.924C118.623 144.749 118.437 144.575 118.246 144.575Z" fill="black"/>
<path d="M118.246 142.364H109.606C109.42 142.364 109.229 142.538 109.229 142.713C109.229 142.887 109.414 143.062 109.606 143.062H118.246C118.431 143.062 118.623 142.887 118.623 142.713C118.623 142.538 118.437 142.364 118.246 142.364Z" fill="black"/>
<path d="M118.246 140.211H109.606C109.42 140.211 109.229 140.385 109.229 140.56C109.229 140.735 109.414 140.909 109.606 140.909H118.246C118.431 140.909 118.623 140.735 118.623 140.56C118.623 140.385 118.437 140.211 118.246 140.211Z" fill="black"/>
<path d="M120.561 153.302H85.3775C85.1919 153.302 85 153.476 85 153.651C85 153.825 85.1857 154 85.3775 154H120.622C120.808 154 121 153.825 121 153.651C121 153.476 120.814 153.302 120.561 153.302Z" fill="black"/>
<path d="M107.286 151.091H98.6461C98.4604 151.091 98.2686 151.265 98.2686 151.44C98.2686 151.614 98.4542 151.789 98.6461 151.789H107.286C107.471 151.789 107.663 151.614 107.663 151.44C107.663 151.265 107.477 151.091 107.286 151.091Z" fill="black"/>
<path d="M107.286 148.938H98.6461C98.4604 148.938 98.2686 149.113 98.2686 149.287C98.2686 149.462 98.4542 149.636 98.6461 149.636H107.286C107.471 149.636 107.663 149.462 107.663 149.287C107.663 149.113 107.477 148.938 107.286 148.938Z" fill="black"/>
<path d="M107.286 146.727H98.6461C98.4604 146.727 98.2686 146.902 98.2686 147.076C98.2686 147.251 98.4542 147.425 98.6461 147.425H107.286C107.471 147.425 107.663 147.251 107.663 147.076C107.663 146.902 107.477 146.727 107.286 146.727Z" fill="black"/>
<path d="M107.286 144.575H98.6461C98.4604 144.575 98.2686 144.749 98.2686 144.924C98.2686 145.098 98.4542 145.273 98.6461 145.273H107.286C107.471 145.273 107.663 145.098 107.663 144.924C107.663 144.749 107.477 144.575 107.286 144.575Z" fill="black"/>
<path d="M107.286 142.364H98.6461C98.4604 142.364 98.2686 142.538 98.2686 142.713C98.2686 142.887 98.4542 143.062 98.6461 143.062H107.286C107.471 143.062 107.663 142.887 107.663 142.713C107.663 142.538 107.477 142.364 107.286 142.364Z" fill="black"/>
<path d="M107.286 140.211H98.6461C98.4604 140.211 98.2686 140.385 98.2686 140.56C98.2686 140.735 98.4542 140.909 98.6461 140.909H107.286C107.471 140.909 107.663 140.735 107.663 140.56C107.663 140.385 107.477 140.211 107.286 140.211Z" fill="black"/>
<path d="M87.692 151.847H96.3315C96.5171 151.847 96.709 151.673 96.709 151.498C96.709 151.323 96.5233 151.149 96.3315 151.149H87.692C87.5063 151.149 87.3145 151.323 87.3145 151.498C87.3145 151.673 87.5001 151.847 87.692 151.847Z" fill="black"/>
<path d="M87.692 149.636H96.3315C96.5171 149.636 96.709 149.462 96.709 149.287C96.709 149.113 96.5233 148.938 96.3315 148.938H87.692C87.5063 148.938 87.3145 149.113 87.3145 149.287C87.3145 149.462 87.5001 149.636 87.692 149.636Z" fill="black"/>
<path d="M87.692 147.484H96.3315C96.5171 147.484 96.709 147.309 96.709 147.135C96.709 146.96 96.5233 146.786 96.3315 146.786H87.692C87.5063 146.786 87.3145 146.96 87.3145 147.135C87.3145 147.309 87.5001 147.484 87.692 147.484Z" fill="black"/>
<path d="M87.692 145.273H96.3315C96.5171 145.273 96.709 145.098 96.709 144.924C96.709 144.749 96.5233 144.575 96.3315 144.575H87.692C87.5063 144.575 87.3145 144.749 87.3145 144.924C87.3145 145.098 87.5001 145.273 87.692 145.273Z" fill="black"/>
<path d="M118.246 138H109.606C109.42 138 109.229 138.175 109.229 138.349C109.229 138.524 109.414 138.698 109.606 138.698H118.246C118.431 138.698 118.623 138.524 118.623 138.349C118.623 138.175 118.437 138 118.246 138Z" fill="black"/>
<path d="M109.229 136.196C109.229 136.371 109.414 136.545 109.606 136.545H118.246C118.431 136.545 118.623 136.371 118.623 136.196C118.623 136.022 118.437 135.847 118.246 135.847H109.606C109.42 135.847 109.229 136.022 109.229 136.196Z" fill="black"/>
<path d="M87.692 142.364H95.5207C95.7064 142.364 95.8983 142.189 95.8983 142.015V138H106.481C106.667 138 106.859 137.826 106.859 137.651V133.462L117.064 127.411V128.924C117.064 129.098 117.249 129.273 117.441 129.273C117.633 129.273 117.819 129.098 117.819 128.924V126.655C117.819 126.48 117.695 126.364 117.571 126.306L115.442 125.666C115.257 125.607 115.003 125.724 114.941 125.898C114.879 126.073 115.003 126.306 115.195 126.364L116.637 126.829L106.308 132.996C106.184 133.055 106.122 133.171 106.122 133.287V137.302H95.5393C95.3536 137.302 95.1618 137.476 95.1618 137.651V141.666H87.692C87.5063 141.666 87.3145 141.84 87.3145 142.015C87.3145 142.189 87.5001 142.364 87.692 142.364Z" fill="black"/>
<g clip-path="url(#clip1_409_5591)">
<path d="M106.997 128C108.66 128 109.995 126.661 109.995 125C109.995 123.339 108.66 122 106.997 122C105.335 122 104 123.339 104 125C104 126.661 105.34 128 106.997 128ZM106.733 125.214C106.627 125.161 106.515 125.161 106.41 125.107C106.304 125.054 106.251 125 106.198 124.946C106.145 124.893 106.092 124.839 106.092 124.732C106.039 124.679 106.039 124.571 106.039 124.464C106.039 124.357 106.039 124.25 106.092 124.143C106.145 124.036 106.198 123.982 106.251 123.875C106.304 123.821 106.41 123.768 106.521 123.714C106.627 123.661 106.738 123.661 106.844 123.661V123.286H107.114V123.661C107.273 123.661 107.437 123.714 107.543 123.768C107.702 123.821 107.813 123.875 107.919 123.929L107.654 124.411C107.654 124.411 107.601 124.411 107.601 124.357C107.548 124.357 107.548 124.304 107.442 124.304C107.336 124.304 107.336 124.25 107.283 124.25C107.23 124.25 107.177 124.196 107.071 124.196V124.679L107.177 124.732C107.283 124.786 107.395 124.786 107.5 124.839C107.606 124.893 107.659 124.946 107.771 125C107.823 125.054 107.876 125.107 107.929 125.214C107.982 125.321 107.982 125.375 107.982 125.536C107.982 125.696 107.982 125.804 107.929 125.911C107.876 126.018 107.823 126.071 107.718 126.125C107.612 126.179 107.559 126.232 107.447 126.286C107.342 126.339 107.236 126.339 107.124 126.339V126.768H106.854V126.339C106.695 126.339 106.531 126.286 106.372 126.232C106.214 126.179 106.049 126.125 105.944 126.018L106.214 125.482L106.267 125.536C106.32 125.589 106.372 125.589 106.425 125.643C106.478 125.696 106.584 125.696 106.637 125.75C106.743 125.804 106.796 125.804 106.907 125.804V125.321L106.748 125.214H106.733Z" fill="black"/>
</g>
</g>
<rect x="238" y="159" width="33" height="33" rx="16.5" fill="#FCDFC4"/>
<g clip-path="url(#clip2_409_5591)">
<path d="M255.394 171.461H246.034C245.463 171.461 245 171.919 245 172.484V185.977C245 186.542 245.463 187 246.034 187H255.394C255.966 187 256.429 186.542 256.429 185.977V172.484C256.429 171.919 255.966 171.461 255.394 171.461Z" fill="#231F20"/>
<path d="M255.168 172.709H246.262V184.755H255.168V172.709Z" fill="#E6E7E8"/>
<path d="M251.197 185.269H250.231C250.161 185.269 250.104 185.325 250.104 185.395V186.35C250.104 186.42 250.161 186.476 250.231 186.476H251.197C251.267 186.476 251.325 186.42 251.325 186.35V185.395C251.325 185.325 251.267 185.269 251.197 185.269Z" fill="#E6E7E8"/>
<path fill-rule="evenodd" clip-rule="evenodd" d="M258.823 172.636H261.7C262.968 172.636 263.999 171.616 263.999 170.362V167.275C263.999 166.021 262.967 165 261.7 165H255.356C254.087 165 253.056 166.021 253.056 167.275V170.362C253.056 171.479 253.874 172.41 254.949 172.6L253.331 176.178L258.823 172.636H258.823ZM259.037 170.237C259.208 170.169 259.354 170.068 259.473 169.935C259.662 169.722 259.758 169.462 259.758 169.162C259.758 168.886 259.677 168.651 259.518 168.464C259.477 168.415 259.428 168.37 259.373 168.328L259.749 168.279L259.681 167.894C259.637 167.642 259.529 167.434 259.36 167.275C259.268 167.188 259.159 167.119 259.037 167.07V166.978C259.806 167.197 260.371 167.899 260.371 168.73C260.371 169.56 259.806 170.263 259.037 170.482V170.236V170.237ZM258.027 166.976V167.067C257.882 167.125 257.755 167.212 257.648 167.326C257.464 167.522 257.367 167.775 257.367 168.055C257.367 168.336 257.449 168.567 257.61 168.766C257.63 168.789 257.65 168.812 257.672 168.834L257.242 168.88L257.301 169.266C257.348 169.571 257.464 169.818 257.649 170.001C257.758 170.108 257.884 170.19 258.027 170.247V170.484C257.253 170.268 256.685 169.563 256.685 168.73C256.685 167.896 257.253 167.192 258.027 166.975L258.027 166.976Z" fill="#E6E7E8"/>
<path fill-rule="evenodd" clip-rule="evenodd" d="M261.7 165.374H255.356C254.295 165.374 253.435 166.225 253.435 167.274V170.362C253.435 171.411 254.295 172.261 255.356 172.261H255.517L254.202 175.169L258.711 172.261H261.7C262.761 172.261 263.621 171.41 263.621 170.362V167.274C263.621 166.225 262.761 165.374 261.7 165.374ZM258.528 166.533C257.301 166.533 256.306 167.517 256.306 168.73C256.306 169.943 257.301 170.927 258.528 170.927C259.755 170.927 260.75 169.943 260.75 168.73C260.75 167.517 259.755 166.533 258.528 166.533ZM259.19 169.688C259.062 169.83 258.885 169.917 258.659 169.949V170.272H258.406V169.958C258.205 169.934 258.042 169.86 257.916 169.736C257.791 169.612 257.71 169.437 257.676 169.21L258.131 169.162C258.149 169.254 258.184 169.333 258.235 169.4C258.287 169.466 258.344 169.515 258.406 169.544V168.822C258.178 168.758 258.012 168.66 257.905 168.53C257.799 168.4 257.745 168.241 257.745 168.055C257.745 167.869 257.805 167.709 257.926 167.58C258.046 167.452 258.206 167.378 258.406 167.359V167.188H258.658V167.359C258.843 167.381 258.99 167.443 259.1 167.546C259.209 167.649 259.278 167.786 259.309 167.959L258.868 168.015C258.841 167.88 258.771 167.788 258.659 167.74V168.414C258.938 168.489 259.128 168.586 259.229 168.704C259.33 168.823 259.38 168.976 259.38 169.162C259.38 169.37 259.316 169.545 259.189 169.688L259.19 169.688ZM258.181 168.034C258.181 168.096 258.2 168.152 258.237 168.204C258.274 168.256 258.331 168.299 258.406 168.331V167.734C258.338 167.757 258.283 167.797 258.242 167.852C258.201 167.907 258.181 167.968 258.181 168.034H258.181ZM258.659 168.896V169.568C258.746 169.552 258.817 169.512 258.872 169.449C258.926 169.385 258.954 169.31 258.954 169.224C258.954 169.147 258.931 169.08 258.885 169.024C258.839 168.969 258.764 168.926 258.659 168.896V168.896Z" fill="#231F20"/>
</g>
<rect x="345" y="70" width="52" height="52" rx="8" fill="#FCDFC4"/>
<g clip-path="url(#clip3_409_5591)">
<path d="M370.152 80.0669C369.945 80.0669 369.8 80.2047 369.8 80.3425C369.8 80.4114 369.8 80.4803 369.869 80.5492C369.938 80.6181 370.007 80.6181 370.145 80.687V80.0669H370.152Z" fill="black"/>
<path d="M370.71 81.7893C370.71 81.7204 370.71 81.6515 370.641 81.5826C370.572 81.5137 370.503 81.5137 370.365 81.4448V81.996C370.641 82.0649 370.717 81.9271 370.717 81.7893H370.71Z" fill="black"/>
<path d="M388.372 99.3594C387.537 98.5326 386.205 98.5326 385.37 99.3594L377.198 107.352C377.06 107.628 376.922 107.903 376.639 108.179C376.08 108.799 375.314 109.074 374.472 109.074L365.327 108.661C365.12 108.661 364.906 108.454 364.906 108.179C364.906 107.972 365.113 107.765 365.396 107.765L374.541 108.179C375.1 108.179 375.659 107.972 376.004 107.559C376.142 107.421 376.211 107.283 376.287 107.145C376.287 107.007 376.356 106.939 376.425 106.87C376.494 106.594 376.563 106.318 376.494 106.043C376.425 105.216 375.728 104.458 374.817 104.389L370.766 103.976V99.635H373.768C375.79 99.635 377.467 98.1192 377.681 96.1899H374.679C372.795 96.1899 371.187 97.568 370.842 99.3594V90.9534H373.844C375.866 90.9534 377.543 89.4376 377.757 87.5084H374.755C372.871 87.5084 371.263 88.8864 370.918 90.6778V83.9944C372.381 83.7877 373.499 82.5475 373.499 81.0317C373.499 79.378 372.105 78 370.428 78C368.75 78 367.356 79.378 367.356 81.0317C367.356 82.5475 368.543 83.8566 370.007 83.9944V96.1899C369.517 94.6741 367.984 93.5028 366.307 93.5028H363.305C363.512 95.432 365.189 96.9479 367.218 96.9479H370.082V103.769L358.633 102.529L352 108.937L358.143 115L360.096 113.691L356.465 110.108C356.327 109.97 356.327 109.695 356.465 109.488C356.603 109.35 356.886 109.35 357.093 109.488L361 113.346L376.639 113.898L388.365 102.322C388.786 101.909 388.993 101.426 388.993 100.806C388.993 100.186 388.71 99.7728 388.365 99.3594H388.372ZM369.454 82.6164C369.247 82.5475 369.033 82.4786 368.895 82.3408L369.247 81.6518L369.316 81.7207C369.385 81.7896 369.454 81.7896 369.523 81.8585C369.592 81.9274 369.73 81.9274 369.799 81.9963C369.938 82.0652 370.007 82.0652 370.151 82.0652V81.4451L369.944 81.3762C369.806 81.3073 369.668 81.3073 369.523 81.2384C369.385 81.1695 369.316 81.1006 369.247 81.0317C369.178 80.9628 369.109 80.8939 369.109 80.7561C369.04 80.6872 369.04 80.5493 369.04 80.4115C369.04 80.2737 369.04 80.1359 369.109 79.9981C369.178 79.8603 369.247 79.7914 369.316 79.6536C369.385 79.5847 369.523 79.5158 369.668 79.4469C369.806 79.378 369.944 79.378 370.089 79.378V78.8957H370.441V79.378C370.648 79.378 370.862 79.4469 371 79.5158C371.207 79.5847 371.352 79.6536 371.49 79.7225L371.138 80.3426C371.138 80.3426 371.069 80.3426 371.069 80.2737C371 80.2737 371 80.2048 370.862 80.2048C370.724 80.2048 370.724 80.1359 370.655 80.1359C370.586 80.1359 370.517 80.067 370.379 80.067V80.6872L370.517 80.7561C370.655 80.825 370.793 80.825 370.938 80.8939C371.076 80.9628 371.145 81.0317 371.29 81.1006C371.359 81.1695 371.428 81.2384 371.497 81.3762C371.566 81.514 371.566 81.5829 371.566 81.7207C371.566 81.9274 371.566 82.0652 371.497 82.203C371.428 82.3408 371.359 82.4097 371.221 82.4786C371.083 82.5475 371.014 82.6164 370.869 82.6853C370.731 82.7542 370.593 82.7542 370.448 82.7542V83.3054H370.096V82.7542C369.889 82.6853 369.675 82.6853 369.468 82.6164H369.454Z" fill="black"/>
<path d="M357.935 85.855C358.439 85.855 358.839 86.2546 358.839 86.7507C358.839 87.2468 358.432 87.6464 357.935 87.6464C357.438 87.6464 357.031 87.2468 357.031 86.7507C357.031 86.2546 357.438 85.855 357.935 85.855Z" fill="black"/>
<path d="M364.43 87.9219C364.933 87.9219 365.334 88.3215 365.334 88.8176C365.334 89.3137 364.926 89.7133 364.43 89.7133C363.933 89.7133 363.525 89.3137 363.525 88.8176C363.525 88.3215 363.933 87.9219 364.43 87.9219Z" fill="black"/>
<path d="M381.885 81.0317C382.388 81.0317 382.789 81.4314 382.789 81.9275C382.789 82.4235 382.382 82.8232 381.885 82.8232C381.388 82.8232 380.974 82.4235 380.974 81.9275C380.974 81.4314 381.381 81.0317 381.885 81.0317Z" fill="black"/>
<path d="M385.37 90.54C385.874 90.54 386.281 90.9397 386.281 91.4358C386.281 91.9318 385.874 92.3315 385.37 92.3315C384.866 92.3315 384.459 91.9318 384.459 91.4358C384.459 90.9397 384.866 90.54 385.37 90.54Z" fill="black"/>
<path d="M379.296 92.2627C379.8 92.2627 380.207 92.6623 380.207 93.1584C380.207 93.6545 379.8 94.0541 379.296 94.0541C378.792 94.0541 378.385 93.6545 378.385 93.1584C378.385 92.6623 378.792 92.2627 379.296 92.2627Z" fill="black"/>
</g>
<circle cx="335" cy="346" r="26" fill="#FCDFC4"/>
<g clip-path="url(#clip4_409_5591)">
<path d="M325.436 347.187C324.996 346.809 324.286 346.809 323.846 347.187C323.684 347.295 323.57 347.457 323.515 347.619C323.515 347.674 323.461 347.782 323.407 347.836C323.353 347.944 323.353 348.052 323.353 348.16C323.353 348.539 323.461 348.863 323.738 349.133L328.294 353.242C328.457 353.35 328.457 353.567 328.294 353.729C328.186 353.891 327.963 353.891 327.801 353.729L323.244 349.62C322.805 349.241 322.588 348.701 322.642 348.16C322.642 347.944 322.696 347.728 322.751 347.511V339.726C322.751 338.969 322.148 338.375 321.378 338.375C320.608 338.375 320.006 338.969 320.006 339.726V350.809L327.741 357.892H331.419C331.581 357.892 331.75 358.054 331.75 358.216C331.75 358.378 331.587 358.54 331.419 358.54H328.018L328.294 360H334.163V354.053L325.441 347.187H325.436Z" fill="black"/>
<path d="M322.446 331.957L323.417 331L324.388 331.957L323.417 332.914L322.446 331.957Z" fill="black"/>
<path d="M348.305 334.593L349.276 333.636L350.247 334.593L349.276 335.55L348.305 334.593Z" fill="black"/>
<path d="M343.758 339.618C343.758 335.131 340.08 331.508 335.529 331.508C330.978 331.508 327.301 335.131 327.301 339.618C327.301 344.105 330.978 347.728 335.529 347.728C340.08 347.728 343.758 344.105 343.758 339.618ZM335.529 345.024C332.514 345.024 330.04 342.591 330.04 339.618C330.04 336.644 332.508 334.212 335.529 334.212C338.551 334.212 341.019 336.644 341.019 339.618C341.019 342.591 338.551 345.024 335.529 345.024Z" fill="black"/>
<path d="M349.633 338.375C348.862 338.375 348.26 338.969 348.26 339.726V347.403C348.315 347.619 348.369 347.836 348.369 348.052C348.369 348.593 348.152 349.133 347.767 349.512L343.21 353.621C343.048 353.729 342.879 353.729 342.717 353.621C342.608 353.458 342.608 353.296 342.717 353.134L347.273 349.025C347.55 348.755 347.712 348.43 347.658 348.052C347.658 347.944 347.658 347.836 347.604 347.728C347.55 347.674 347.55 347.619 347.496 347.511C347.441 347.349 347.279 347.241 347.165 347.079C346.725 346.7 346.015 346.7 345.575 347.079L336.907 354.053V360H342.722L342.999 358.54H339.598C339.435 358.54 339.267 358.378 339.267 358.216C339.267 358.054 339.43 357.892 339.598 357.892H343.275L351.01 350.809V339.726C351.01 338.969 350.408 338.375 349.638 338.375H349.633Z" fill="black"/>
<g clip-path="url(#clip5_409_5591)">
<path d="M336.21 340.333C336.104 340.28 335.998 340.228 335.834 340.175V340.966C336.21 340.966 336.369 340.86 336.369 340.597C336.369 340.438 336.316 340.386 336.21 340.333Z" fill="black"/>
<path d="M334.826 338.435C334.826 338.54 334.879 338.645 334.932 338.698C334.985 338.751 335.144 338.804 335.309 338.856V338.013C334.985 338.065 334.826 338.224 334.826 338.435Z" fill="black"/>
<path d="M335.5 334.955C332.929 334.955 330.782 337.011 330.782 339.542C330.782 342.073 332.876 344.182 335.5 344.182C338.123 344.182 340.217 342.125 340.217 339.542C340.217 336.958 338.076 334.955 335.5 334.955ZM337.323 341.124C337.217 341.282 337.111 341.44 336.947 341.545C336.788 341.651 336.623 341.756 336.411 341.809C336.199 341.862 335.982 341.915 335.77 341.915V342.705H335.288V341.915C334.964 341.862 334.646 341.809 334.376 341.704C334.053 341.598 333.788 341.493 333.57 341.335L334.053 340.385C334.053 340.385 334.106 340.438 334.212 340.491C334.265 340.544 334.371 340.596 334.535 340.649C334.641 340.702 334.805 340.755 334.964 340.807C335.123 340.86 335.288 340.913 335.447 340.913V340.016L335.123 339.911C334.911 339.858 334.694 339.753 334.535 339.7C334.376 339.647 334.212 339.542 334.106 339.436C334 339.331 333.947 339.225 333.894 339.067C333.841 338.909 333.841 338.804 333.841 338.593C333.841 338.382 333.894 338.171 333.947 337.96C334.053 337.802 334.159 337.644 334.27 337.485C334.429 337.38 334.593 337.275 334.752 337.169C334.964 337.116 335.129 337.064 335.341 337.011V336.325H335.77V337.116C336.04 337.169 336.358 337.222 336.576 337.327C336.846 337.433 337.058 337.538 337.27 337.644L336.788 338.54C336.788 338.54 336.735 338.487 336.682 338.435C336.629 338.382 336.523 338.329 336.411 338.329C336.305 338.276 336.199 338.224 336.088 338.171C335.982 338.118 335.818 338.118 335.712 338.065V338.962L335.924 339.015C336.136 339.067 336.353 339.12 336.565 339.225C336.724 339.278 336.888 339.384 337.047 339.489C337.153 339.595 337.259 339.753 337.371 339.911C337.424 340.069 337.477 340.28 337.477 340.491C337.424 340.702 337.371 340.965 337.318 341.124H337.323Z" fill="black"/>
</g>
</g>
<circle cx="191" cy="26" r="26" fill="#FCDFC4"/>
<g clip-path="url(#clip6_409_5591)">
<path d="M189.273 29.7437C187.504 29.7437 186.021 31.2166 186.021 32.9701V40.405H192.532V32.9701C192.462 31.2166 191.05 29.7437 189.28 29.7437H189.273Z" fill="black"/>
<path d="M205.826 33.6012C205.756 33.5311 205.617 33.4609 205.47 33.4609V34.1623C205.749 34.1623 205.966 34.0221 205.966 33.8818C205.966 33.7415 205.896 33.6714 205.826 33.6012Z" fill="black"/>
<path d="M185.525 41.2466H174.77V43.0001H204.833V41.2466H192.952H185.525Z" fill="black"/>
<path d="M178.657 10.5249C178.37 10.5249 178.23 10.6652 178.23 10.8756C178.23 10.9457 178.23 11.086 178.3 11.086C178.37 11.1562 178.44 11.2263 178.58 11.2263L178.65 10.5249H178.657Z" fill="black"/>
<path d="M177.035 21.3964L189.77 16.8373H190.049L202.784 21.1158L204.91 21.9575C205.05 22.0276 205.26 22.0276 205.407 22.0276C205.756 22.0276 206.113 21.8874 206.4 21.6068C206.679 21.3262 206.826 20.9755 206.826 20.6248C206.826 20.0637 206.47 19.5727 205.98 19.3623L198.413 15.9956L197.42 15.5747C197.35 15.5747 197.35 15.5046 197.28 15.5046L189.854 12.208L173.846 19.4325C173.35 19.6429 173 20.204 173 20.7651C173 21.5367 173.636 22.1679 174.413 22.1679C174.552 22.1679 174.692 22.1679 174.909 22.0978L177.028 21.3964H177.035Z" fill="black"/>
<path d="M178.797 15.8557C180.993 15.8557 182.755 14.1022 182.755 11.9279C182.755 9.75351 180.993 8 178.797 8C176.601 8 174.839 9.75351 174.839 11.9279C174.839 14.1022 176.608 15.8557 178.804 15.8557H178.797ZM178.37 12.2084C178.161 12.1383 178.021 12.0681 177.874 11.998C177.734 11.9279 177.594 11.8577 177.517 11.7876C177.447 11.7174 177.377 11.5772 177.307 11.507C177.238 11.3667 177.238 11.2265 177.238 11.0862C177.238 10.8758 177.307 10.6653 177.377 10.5251C177.447 10.3848 177.517 10.2445 177.664 10.1042C177.804 9.96393 177.944 9.89379 178.091 9.82365C178.231 9.75351 178.447 9.68337 178.657 9.68337V9.0521H179.084V9.68337C179.37 9.68337 179.58 9.75351 179.79 9.82365C180 9.89379 180.217 10.0341 180.357 10.1042L179.93 10.9459L179.86 10.8758C179.79 10.8056 179.72 10.8056 179.65 10.7355C179.58 10.6653 179.44 10.6653 179.37 10.5952C179.231 10.5251 179.161 10.5251 179.014 10.5251V11.3667L179.224 11.4369C179.433 11.507 179.573 11.5772 179.79 11.6473C179.93 11.7174 180.077 11.7876 180.217 11.8577C180.357 11.9279 180.426 12.0681 180.496 12.2084C180.566 12.3487 180.566 12.489 180.566 12.6994C180.566 12.9098 180.496 13.1202 180.426 13.2605C180.357 13.4008 180.217 13.5411 180.077 13.6814C179.937 13.7515 179.79 13.8918 179.58 13.8918C179.37 13.8918 179.231 13.9619 179.014 13.9619V14.6633H178.587V13.9619C178.308 13.9619 178.021 13.8918 177.741 13.8216C177.461 13.7515 177.245 13.6112 177.035 13.4709L177.461 12.6293C177.461 12.6293 177.531 12.6994 177.601 12.6994C177.671 12.7695 177.741 12.7695 177.881 12.8397C178.021 12.9098 178.091 12.9098 178.238 12.98C178.377 13.0501 178.524 13.0501 178.664 13.0501V12.2786L178.377 12.2084H178.37Z" fill="black"/>
<path d="M202.218 40.4042V36.6867C201.155 35.7749 200.448 34.4422 200.448 32.9693C200.448 31.4963 201.155 30.1637 202.218 29.2519V21.817L189.91 17.6787L177.602 22.0975V40.4042H185.098V32.9693C185.098 30.7248 186.938 28.9012 189.203 28.9012C191.469 28.9012 193.308 30.7248 193.308 32.9693V40.4042H202.225H202.218ZM186.728 21.8871H192.952C193.161 21.8871 193.378 22.0975 193.378 22.308C193.378 22.5184 193.168 22.7288 192.952 22.7288H186.728C186.518 22.7288 186.301 22.5184 186.301 22.308C186.301 22.0274 186.511 21.8871 186.728 21.8871ZM181.42 25.3941C181.21 25.3941 180.993 25.1837 180.993 24.9733C180.993 24.7629 181.203 24.5525 181.42 24.5525H198.26C198.469 24.5525 198.686 24.7629 198.686 24.9733C198.686 25.1837 198.476 25.3941 198.26 25.3941H181.42Z" fill="black"/>
<path d="M201.015 16.2765V13.8216C201.015 12.9799 200.379 12.3486 199.532 12.3486C198.686 12.3486 198.05 12.9799 198.05 13.8216V15.014L198.756 15.2945L201.022 16.2765H201.015Z" fill="black"/>
<path d="M179.441 12.7701C179.441 12.7 179.371 12.5597 179.301 12.5597C179.231 12.4896 179.091 12.4194 178.944 12.4194V13.1208C179.301 13.1208 179.441 12.9806 179.441 12.7701Z" fill="black"/>
<path d="M204.763 31.9176C204.763 31.9877 204.763 32.128 204.833 32.128C204.903 32.1982 204.973 32.2683 205.113 32.2683V31.5669C204.903 31.637 204.756 31.7072 204.756 31.9176H204.763Z" fill="black"/>
<path d="M205.329 28.9722C203.133 28.9722 201.371 30.7257 201.371 32.9C201.371 35.0744 203.14 36.8279 205.329 36.8279C207.518 36.8279 209.294 35.0744 209.294 32.9C209.294 30.7257 207.525 28.9722 205.329 28.9722ZM206.889 34.3028C206.819 34.4431 206.679 34.5834 206.532 34.7237C206.392 34.7938 206.252 34.9341 206.036 34.9341C205.896 35.0042 205.679 35.0042 205.469 35.0042V35.7056H205.112V35.0042C204.833 35.0042 204.546 34.9341 204.266 34.864C203.987 34.7938 203.77 34.6535 203.56 34.5132L203.987 33.6716C203.987 33.6716 204.056 33.7417 204.126 33.7417C204.196 33.8118 204.266 33.8118 204.406 33.882C204.546 33.9521 204.616 33.9521 204.763 34.0223C204.903 34.0924 205.05 34.0924 205.189 34.0924V33.3209L204.91 33.2507C204.7 33.1806 204.553 33.1104 204.413 33.0403C204.273 32.9702 204.133 32.9 204.056 32.8299C203.987 32.7597 203.917 32.6195 203.847 32.5493C203.777 32.409 203.777 32.2688 203.777 32.1285C203.777 31.9181 203.847 31.7076 203.917 31.5674C203.987 31.4271 204.056 31.2868 204.203 31.1465C204.343 31.0062 204.483 30.9361 204.63 30.866C204.77 30.7958 204.987 30.7257 205.196 30.7257V30.0944H205.623V30.7257C205.91 30.7257 206.119 30.7958 206.329 30.866C206.539 30.9361 206.756 31.0764 206.896 31.1465L206.469 31.9882L206.399 31.9181C206.329 31.8479 206.259 31.8479 206.189 31.7778C206.119 31.7076 205.98 31.7076 205.91 31.6375C205.77 31.5674 205.7 31.5674 205.553 31.5674V32.409L205.763 32.4792C205.973 32.5493 206.119 32.6195 206.329 32.6896C206.469 32.7597 206.616 32.8299 206.756 32.9C206.896 32.9702 206.966 33.1104 207.036 33.2507C207.106 33.391 207.106 33.5313 207.106 33.7417C207.036 33.9521 206.966 34.1625 206.896 34.3028H206.889Z" fill="black"/>
</g>
<rect x="33" y="265" width="33" height="33" rx="16.5" fill="#FCDFC4"/>
<g clip-path="url(#clip7_409_5591)">
<path d="M46.1588 288.881C46.1261 288.915 46.0934 288.948 46.0607 288.982L46.028 289.016C45.9953 289.016 45.9953 289.049 45.9626 289.049C45.9299 289.049 45.9299 289.083 45.8972 289.083C45.8972 289.083 45.8645 289.083 45.8645 289.117C45.8318 289.117 45.8318 289.15 45.7991 289.15H45.7665C45.7011 289.184 45.6684 289.218 45.5997 289.251C45.567 289.251 45.567 289.285 45.5343 289.285C45.5016 289.285 45.5016 289.318 45.469 289.318C45.4363 289.318 45.4363 289.352 45.4036 289.352C45.3382 289.352 45.3382 289.386 45.3055 289.386C45.2728 289.386 45.2401 289.419 45.2074 289.419C45.1747 289.419 45.1747 289.419 45.142 289.453C45.1093 289.487 45.044 289.487 44.9753 289.487H44.9426C44.9099 289.487 44.8445 289.52 44.8118 289.52H44.7791C44.7465 289.52 44.6811 289.554 44.6484 289.554H44.6157C44.583 289.554 44.5176 289.587 44.449 289.587C44.3836 289.587 44.3509 289.621 44.2822 289.621H43.0922C43.0268 289.621 42.9615 289.621 42.9255 289.587C42.8601 289.587 42.8274 289.554 42.7588 289.554H42.7261C42.6934 289.554 42.628 289.52 42.5953 289.52H42.5626C42.5299 289.52 42.4645 289.487 42.4318 289.487H42.3991C42.3338 289.487 42.3011 289.453 42.2324 289.453C42.2106 289.453 42.1888 289.442 42.167 289.419C42.1343 289.419 42.1016 289.386 42.069 289.386C42.0363 289.386 42.0363 289.352 42.0036 289.352C41.9709 289.352 41.9709 289.318 41.9382 289.318C41.9055 289.318 41.9055 289.285 41.8728 289.285C41.8401 289.285 41.8401 289.251 41.8074 289.251C41.742 289.218 41.7093 289.184 41.6407 289.15H41.608C41.5753 289.15 41.5426 289.117 41.5426 289.117C41.5426 289.117 41.5099 289.117 41.5099 289.083C41.4772 289.083 41.4772 289.049 41.4445 289.049C41.4118 289.049 41.4118 289.016 41.3791 289.016L41.3465 288.982C41.3138 288.948 41.2811 288.915 41.2484 288.915C41.2157 288.881 41.183 288.848 41.1503 288.814C41.0849 288.982 41.0195 289.15 41.0195 289.318C41.0195 290.26 42.2095 291 43.697 291C45.1845 291 46.3745 290.26 46.3745 289.318C46.3745 289.15 46.3418 288.982 46.2438 288.814L46.1784 288.881H46.1588Z" fill="black"/>
<path d="M46.2568 287.099C46.2241 287.133 46.1914 287.166 46.1587 287.2C46.126 287.234 46.0933 287.267 46.0606 287.301C46.0279 287.335 45.9952 287.368 45.9625 287.402C45.9298 287.435 45.8971 287.469 45.8318 287.469H45.7991C45.7664 287.503 45.7337 287.503 45.6683 287.536H45.6356C45.6029 287.57 45.5375 287.57 45.5048 287.604C45.4721 287.637 45.4068 287.637 45.3741 287.671C45.3414 287.704 45.276 287.704 45.2433 287.738H45.2106C45.1779 287.772 45.1125 287.772 45.0798 287.772H45.0471C45.0145 287.772 44.9491 287.805 44.8804 287.805H44.8477C44.7823 287.805 44.7496 287.839 44.681 287.839C44.6156 287.839 44.5829 287.873 44.5143 287.873C44.4489 287.873 44.4162 287.906 44.3475 287.906H44.3148C44.2494 287.906 44.2168 287.906 44.1481 287.94H43.3537C43.2883 287.94 43.2556 287.94 43.187 287.906H43.1543C43.0889 287.906 43.0562 287.906 42.9875 287.873C42.9221 287.873 42.8895 287.839 42.8208 287.839C42.7554 287.839 42.7227 287.805 42.6541 287.805H42.6214C42.556 287.805 42.5233 287.772 42.4546 287.772H42.422C42.3893 287.772 42.3239 287.738 42.2912 287.738H42.2585C42.1931 287.704 42.1604 287.704 42.1277 287.671C42.095 287.637 42.0296 287.637 41.997 287.604C41.9643 287.57 41.8989 287.57 41.8662 287.536H41.8335C41.8008 287.503 41.7354 287.503 41.7027 287.469H41.67C41.6373 287.435 41.6046 287.402 41.5393 287.402C41.5066 287.368 41.4739 287.335 41.4412 287.335C41.4085 287.301 41.3758 287.267 41.3431 287.234C41.3104 287.2 41.2777 287.166 41.245 287.133C41.1796 287.301 41.1143 287.469 41.1143 287.637C41.1143 287.873 41.2123 288.108 41.3464 288.31L41.3791 288.343C41.7746 288.881 42.6345 289.251 43.5629 289.319H44.0271C44.9523 289.251 45.8121 288.915 46.211 288.343L46.2437 288.31C46.4104 288.108 46.4758 287.873 46.4758 287.637C46.4104 287.402 46.3777 287.234 46.2764 287.099H46.2568Z" fill="black"/>
<path d="M46.5576 288.411C46.5576 288.444 46.5903 288.478 46.5903 288.478C46.5903 288.444 46.623 288.411 46.623 288.411C46.623 288.377 46.5903 288.343 46.5903 288.343C46.5903 288.377 46.5576 288.411 46.5576 288.411Z" fill="black"/>
<path d="M43.713 284.207C42.2549 284.207 41.0322 284.947 41.0322 285.888C41.0322 286.124 41.1303 286.359 41.297 286.595C41.5618 286.965 42.0588 287.234 42.6211 287.402C42.6538 287.402 42.6865 287.402 42.7191 287.435C42.7845 287.435 42.8172 287.469 42.8859 287.469C43.1507 287.536 43.4482 287.57 43.713 287.57C44.7395 287.57 45.6647 287.2 46.1257 286.595C46.2924 286.359 46.3905 286.124 46.3905 285.888C46.3905 284.98 45.2005 284.207 43.713 284.207Z" fill="black"/>
<path d="M46.5576 286.729C46.5576 286.763 46.5903 286.797 46.5903 286.797C46.5903 286.763 46.623 286.729 46.623 286.729C46.5903 286.696 46.5903 286.662 46.5903 286.662C46.5903 286.696 46.5576 286.696 46.5576 286.729Z" fill="black"/>
<path d="M51.913 288.881C51.8803 288.915 51.8476 288.948 51.8149 288.982L51.7822 289.016C51.7495 289.016 51.7495 289.049 51.7169 289.049C51.6842 289.049 51.6842 289.083 51.6515 289.083C51.6515 289.083 51.6188 289.083 51.6188 289.117C51.5861 289.117 51.5534 289.15 51.5534 289.15C51.488 289.184 51.4226 289.218 51.354 289.251C51.3213 289.251 51.3213 289.285 51.2886 289.285C51.2559 289.285 51.2232 289.318 51.2232 289.318C51.1905 289.318 51.1905 289.352 51.1578 289.352C51.1251 289.352 51.1251 289.386 51.0924 289.386C51.0597 289.386 51.027 289.419 50.9944 289.419C50.9617 289.419 50.9617 289.419 50.929 289.453C50.8963 289.487 50.8309 289.487 50.7982 289.487H50.7655C50.7328 289.487 50.6674 289.52 50.6347 289.52H50.6021C50.5694 289.52 50.5367 289.554 50.4713 289.554H50.4386C50.4059 289.554 50.3405 289.587 50.3078 289.587H50.2751C50.2097 289.587 50.1771 289.621 50.1084 289.621H48.9184C48.853 289.621 48.7876 289.621 48.7517 289.587C48.6863 289.587 48.6536 289.554 48.5849 289.554H48.5522C48.5195 289.554 48.4542 289.52 48.4215 289.52H48.3888C48.3561 289.52 48.2907 289.487 48.258 289.487H48.2253C48.1599 289.487 48.1272 289.453 48.0586 289.453C48.0368 289.453 48.015 289.442 47.9932 289.419C47.9605 289.419 47.9278 289.386 47.8951 289.386C47.8624 289.386 47.8624 289.352 47.8297 289.352C47.797 289.352 47.797 289.318 47.7644 289.318C47.7317 289.318 47.7317 289.285 47.699 289.285C47.6663 289.285 47.6663 289.251 47.6336 289.251C47.5682 289.218 47.5355 289.184 47.4669 289.15H47.4342C47.4015 289.15 47.3688 289.117 47.3688 289.117C47.3688 289.117 47.3361 289.117 47.3361 289.083C47.3034 289.083 47.3034 289.049 47.2707 289.049C47.238 289.049 47.238 289.016 47.2053 289.016L47.1726 288.982C47.1399 288.948 47.1072 288.915 47.0745 288.915L46.9765 288.814C46.9111 288.982 46.8457 289.15 46.8457 289.318C46.8457 290.26 48.0357 291 49.5232 291C51.0107 291 52.2007 290.26 52.2007 289.318C52.2007 289.15 52.168 288.982 52.0699 288.814C52.0045 288.814 51.9719 288.848 51.9392 288.881H51.913Z" fill="black"/>
<path d="M52.3438 272.034C51.5494 272.034 50.8563 272.303 50.3594 272.807C49.8298 273.345 49.565 274.085 49.5977 274.926C49.565 274.858 49.4996 274.825 49.3982 274.825C49.2675 274.825 49.1661 274.926 49.1661 275.06V277.481C47.8421 277.582 46.7861 278.288 46.7861 279.163C46.7861 279.398 46.8842 279.634 47.0509 279.869C47.3157 280.205 47.744 280.508 48.2736 280.676C48.3063 280.676 48.339 280.71 48.3717 280.71C48.4698 280.743 48.6038 280.777 48.7346 280.777C48.9667 280.811 49.2315 280.844 49.4963 280.844C50.5229 280.844 51.4481 280.474 51.909 279.869C52.0757 279.634 52.1738 279.398 52.1738 279.163C52.1738 278.255 51.0492 277.549 49.6598 277.481V275.06H49.8592C50.6536 275.06 51.3467 274.791 51.8436 274.287C52.4059 273.715 52.6707 272.908 52.6054 272C52.5073 272.034 52.4059 272.034 52.3406 272.034H52.3438Z" fill="black"/>
<path d="M51.913 287.2C51.8803 287.234 51.8476 287.267 51.8149 287.301L51.7822 287.335C51.7495 287.335 51.7495 287.368 51.7169 287.368C51.6842 287.368 51.6842 287.402 51.6515 287.402C51.6515 287.402 51.6188 287.402 51.6188 287.435C51.5861 287.435 51.5534 287.469 51.5534 287.469C51.488 287.503 51.4226 287.536 51.354 287.57C51.3213 287.57 51.3213 287.604 51.2886 287.604C51.2559 287.604 51.2232 287.637 51.2232 287.637C51.1905 287.637 51.1905 287.671 51.1578 287.671C51.1251 287.671 51.1251 287.704 51.0924 287.704C51.0597 287.704 51.027 287.738 50.9944 287.738C50.9617 287.738 50.9617 287.738 50.929 287.772C50.8963 287.805 50.8309 287.805 50.7982 287.805H50.7655C50.7328 287.805 50.6674 287.839 50.6347 287.839H50.602C50.5694 287.839 50.5367 287.873 50.4713 287.873H50.4386C50.4059 287.873 50.3405 287.906 50.3078 287.906H50.2751C50.2097 287.906 50.177 287.94 50.1084 287.94H48.9184C48.853 287.94 48.7876 287.94 48.7517 287.906C48.6863 287.906 48.6536 287.873 48.5849 287.873H48.5522C48.5195 287.873 48.4542 287.839 48.4215 287.839H48.3888C48.3561 287.839 48.2907 287.805 48.258 287.805H48.2253C48.1599 287.805 48.1272 287.772 48.0586 287.772C48.0368 287.772 48.015 287.761 47.9932 287.738C47.9605 287.738 47.9278 287.704 47.8951 287.704C47.8624 287.704 47.8624 287.671 47.8297 287.671C47.797 287.671 47.797 287.637 47.7644 287.637C47.7317 287.637 47.7317 287.604 47.699 287.604C47.6663 287.604 47.6663 287.57 47.6336 287.57C47.5682 287.536 47.5355 287.503 47.4669 287.469H47.4342C47.4015 287.469 47.3688 287.435 47.3688 287.435C47.3688 287.435 47.3361 287.435 47.3361 287.402C47.3034 287.402 47.3034 287.368 47.2707 287.368C47.238 287.368 47.238 287.335 47.2053 287.335L47.1726 287.301C47.1399 287.267 47.1072 287.234 47.0745 287.234L46.9765 287.133C46.9111 287.301 46.8457 287.469 46.8457 287.637C46.8457 287.873 46.9438 288.108 47.0778 288.31L47.1105 288.343C47.5061 288.881 48.3659 289.251 49.2944 289.319H49.7586C50.6838 289.251 51.5436 288.915 51.9424 288.343L51.9751 288.31C52.1419 288.108 52.2072 287.873 52.2072 287.637C52.2072 287.469 52.1746 287.301 52.0765 287.133C52.0111 287.133 51.9784 287.166 51.9457 287.2H51.913Z" fill="black"/>
<path d="M43.1833 280.239C43.1833 280.205 43.1506 280.138 43.1179 280.138C43.0852 280.104 43.0198 280.071 42.9512 280.071V280.407C43.0819 280.373 43.1833 280.34 43.1833 280.239Z" fill="black"/>
<path d="M55.6857 277.078C56.7122 277.078 57.5361 276.237 57.5361 275.195C57.5361 274.152 56.709 273.312 55.6857 273.312C54.6624 273.312 53.832 274.152 53.832 275.195C53.832 276.237 54.6591 277.078 55.6857 277.078ZM55.519 275.329C55.4209 275.296 55.3522 275.262 55.2868 275.228C55.2215 275.195 55.1561 275.161 55.1201 275.127C55.0874 275.094 55.0547 275.027 55.022 274.993C54.9893 274.959 54.9893 274.858 54.9893 274.791C54.9893 274.69 55.022 274.623 55.0547 274.522C55.0874 274.455 55.1201 274.388 55.1855 274.32C55.2509 274.253 55.3163 274.219 55.3849 274.186C55.4503 274.152 55.5516 274.119 55.617 274.119V273.85H55.8165V274.119C55.9472 274.119 56.0486 274.152 56.1466 274.186C56.2447 274.219 56.3461 274.287 56.4115 274.32L56.212 274.69L56.1793 274.657C56.1466 274.623 56.114 274.623 56.0813 274.589C56.0486 274.556 55.9832 274.556 55.9505 274.522C55.8851 274.489 55.8524 274.489 55.7838 274.489V274.926L55.8818 274.959C55.9799 274.993 56.0486 275.027 56.1466 275.06C56.212 275.094 56.2774 275.127 56.3461 275.161C56.4115 275.195 56.4441 275.262 56.4768 275.329C56.5095 275.396 56.5095 275.464 56.5095 275.565C56.5095 275.666 56.4768 275.766 56.4441 275.834C56.4115 275.901 56.3461 275.968 56.3134 276.002C56.248 276.035 56.1826 276.069 56.114 276.103C56.0486 276.136 55.9472 276.136 55.8491 276.136V276.473H55.6497V276.136C55.519 276.136 55.3849 276.103 55.2868 276.069C55.1561 276.035 55.0547 275.968 54.9566 275.901L55.1561 275.497C55.1561 275.497 55.1888 275.531 55.2215 275.531C55.2541 275.565 55.2868 275.565 55.3522 275.598C55.4176 275.632 55.4503 275.632 55.519 275.666C55.5843 275.699 55.6497 275.699 55.7184 275.699V275.329H55.519Z" fill="black"/>
<path d="M55.6496 274.556C55.5188 274.556 55.4502 274.623 55.4502 274.724C55.4502 274.757 55.4502 274.791 55.4829 274.825C55.5156 274.858 55.5483 274.892 55.6137 274.892V274.556H55.6463H55.6496Z" fill="black"/>
<path d="M42.8858 281.685C43.9123 281.685 44.7395 280.844 44.7395 279.802C44.7395 278.759 43.9123 277.918 42.8858 277.918C41.8593 277.918 41.0322 278.759 41.0322 279.802C40.9995 280.844 41.8593 281.685 42.8825 281.685H42.8858ZM42.6864 279.97C42.5883 279.936 42.5197 279.903 42.4543 279.869C42.3889 279.835 42.3235 279.802 42.2875 279.768C42.2516 279.734 42.2222 279.667 42.1895 279.634C42.1568 279.566 42.1568 279.499 42.1568 279.432C42.1568 279.331 42.1895 279.264 42.2222 279.163C42.2548 279.095 42.2875 279.028 42.3529 278.961C42.4183 278.894 42.4837 278.86 42.5523 278.826C42.6177 278.793 42.7191 278.759 42.7845 278.759V278.49H42.9839V278.759C43.1147 278.759 43.216 278.793 43.3141 278.826C43.4122 278.86 43.5135 278.927 43.5789 278.961L43.3795 279.331L43.3468 279.297C43.3141 279.264 43.2814 279.264 43.2487 279.23C43.216 279.196 43.1506 279.196 43.1179 279.163C43.0525 279.129 43.0198 279.129 42.9512 279.129V279.499L43.0493 279.533C43.1473 279.566 43.216 279.6 43.3141 279.634C43.3795 279.667 43.4448 279.701 43.5135 279.734C43.5789 279.768 43.6116 279.835 43.6443 279.903C43.677 279.97 43.677 280.037 43.677 280.138C43.677 280.239 43.6443 280.34 43.6116 280.407C43.5789 280.474 43.5135 280.541 43.4808 280.575C43.4154 280.609 43.35 280.642 43.2814 280.676C43.216 280.71 43.1147 280.71 43.0166 280.71V281.046H42.8172V280.71C42.6864 280.71 42.5523 280.676 42.4543 280.642C42.3235 280.609 42.2222 280.541 42.1241 280.474L42.3235 280.071C42.3235 280.071 42.3562 280.104 42.3889 280.104C42.4216 280.138 42.4543 280.138 42.5197 280.172C42.585 280.205 42.6177 280.205 42.6864 280.239C42.7518 280.272 42.8172 280.272 42.8858 280.272V279.903L42.6864 279.97Z" fill="black"/>
<path d="M42.8176 279.163C42.6868 279.163 42.6182 279.23 42.6182 279.331C42.6182 279.364 42.6182 279.398 42.6509 279.432C42.6835 279.465 42.7162 279.499 42.7816 279.499C42.8143 279.533 42.8143 279.163 42.8143 279.163H42.8176Z" fill="black"/>
<path d="M48.9053 275.094H49.1374C49.2028 274.186 48.938 273.379 48.3757 272.807C47.8788 272.303 47.1857 272.034 46.3913 272.034H46.1592C46.0938 272.942 46.3586 273.749 46.9209 274.32C47.4178 274.825 48.1109 275.094 48.9053 275.094Z" fill="black"/>
<path d="M55.9831 275.598C55.9831 275.565 55.9504 275.497 55.9177 275.497C55.885 275.464 55.8196 275.43 55.751 275.43V275.766C55.9177 275.766 55.9831 275.699 55.9831 275.598Z" fill="black"/>
<path d="M52.3115 285.048C52.3442 285.081 52.3442 285.115 52.3769 285.149C52.4096 285.115 52.4096 285.081 52.4423 285.048C52.4096 285.014 52.4096 284.98 52.3769 284.947C52.3442 284.98 52.3115 285.014 52.3115 285.048Z" fill="black"/>
<path d="M57.7029 288.881C57.6702 288.915 57.6375 288.948 57.6048 288.982L57.5721 289.016C57.5394 289.016 57.5394 289.049 57.5067 289.049C57.474 289.049 57.474 289.083 57.4413 289.083C57.4413 289.083 57.4087 289.083 57.4087 289.117C57.376 289.117 57.3433 289.15 57.3433 289.15C57.2779 289.184 57.2125 289.218 57.1438 289.251C57.1112 289.251 57.1112 289.285 57.0785 289.285C57.0458 289.285 57.0131 289.318 57.0131 289.318C56.9804 289.318 56.9804 289.352 56.9477 289.352C56.915 289.352 56.915 289.386 56.8823 289.386C56.8496 289.386 56.8169 289.419 56.7842 289.419C56.7515 289.419 56.7515 289.419 56.7188 289.453C56.6862 289.487 56.6208 289.487 56.5881 289.487H56.5554C56.5227 289.487 56.4573 289.52 56.4246 289.52H56.3919C56.3592 289.52 56.3265 289.554 56.2612 289.554H56.2285C56.1958 289.554 56.1304 289.587 56.0977 289.587H56.065C55.9996 289.587 55.9669 289.621 55.8983 289.621H54.7083C54.6429 289.621 54.6102 289.621 54.5415 289.587H54.5088C54.4762 289.587 54.4108 289.554 54.3781 289.554H54.3454C54.3127 289.554 54.28 289.52 54.2146 289.52H54.1819C54.1492 289.52 54.0838 289.487 54.0512 289.487H54.0185C53.9531 289.487 53.9204 289.453 53.8877 289.453C53.855 289.453 53.855 289.453 53.8223 289.419C53.7896 289.419 53.7569 289.386 53.7242 289.386C53.6915 289.386 53.6915 289.352 53.6588 289.352C53.6262 289.352 53.6262 289.318 53.5935 289.318C53.5608 289.318 53.5281 289.285 53.5281 289.285C53.4954 289.285 53.4954 289.251 53.4627 289.251C53.3973 289.218 53.3319 289.184 53.2633 289.15C53.2306 289.15 53.1979 289.117 53.1979 289.117C53.1979 289.117 53.1652 289.117 53.1652 289.083C53.1325 289.083 53.1325 289.049 53.0998 289.049C53.0671 289.049 53.0671 289.016 53.0344 289.016L53.0017 288.982C52.969 288.948 52.9363 288.915 52.9037 288.915C52.871 288.881 52.8383 288.848 52.8056 288.814C52.7402 288.982 52.6748 289.15 52.6748 289.318C52.6748 290.26 53.8648 291 55.3523 291C56.8398 291 58.0298 290.26 58.0298 289.318C58.0298 289.15 57.9971 288.982 57.899 288.814C57.801 288.814 57.7683 288.848 57.7323 288.881H57.7029Z" fill="black"/>
<path d="M57.7029 287.2C57.6702 287.234 57.6375 287.267 57.6048 287.301L57.5721 287.335C57.5394 287.335 57.5394 287.368 57.5067 287.368C57.474 287.368 57.474 287.402 57.4413 287.402C57.4413 287.402 57.4087 287.402 57.4087 287.435C57.376 287.435 57.3433 287.469 57.3433 287.469C57.2779 287.503 57.2125 287.536 57.1438 287.57C57.1112 287.57 57.1112 287.604 57.0785 287.604C57.0458 287.604 57.0131 287.637 57.0131 287.637C56.9804 287.637 56.9804 287.671 56.9477 287.671C56.915 287.671 56.915 287.704 56.8823 287.704C56.8496 287.704 56.8169 287.738 56.7842 287.738C56.7515 287.738 56.7515 287.738 56.7188 287.772C56.6862 287.805 56.6208 287.805 56.5881 287.805H56.5554C56.5227 287.805 56.4573 287.839 56.4246 287.839H56.3919C56.3592 287.839 56.3265 287.873 56.2612 287.873H56.2285C56.1958 287.873 56.1304 287.906 56.0977 287.906H56.065C55.9996 287.906 55.9669 287.94 55.8983 287.94H54.7083C54.6429 287.94 54.6102 287.94 54.5415 287.906H54.5088C54.4762 287.906 54.4108 287.873 54.3781 287.873H54.3454C54.3127 287.873 54.28 287.839 54.2146 287.839H54.1819C54.1492 287.839 54.0838 287.805 54.0512 287.805H54.0185C53.9531 287.805 53.9204 287.772 53.8877 287.772C53.855 287.772 53.855 287.772 53.8223 287.738C53.7896 287.738 53.7569 287.704 53.7242 287.704C53.6915 287.704 53.6915 287.671 53.6588 287.671C53.6262 287.671 53.6262 287.637 53.5935 287.637C53.5608 287.637 53.5281 287.604 53.5281 287.604C53.4954 287.604 53.4954 287.57 53.4627 287.57C53.3973 287.536 53.3319 287.503 53.2633 287.469C53.2306 287.469 53.1979 287.435 53.1979 287.435C53.1979 287.435 53.1652 287.435 53.1652 287.402C53.1325 287.402 53.1325 287.368 53.0998 287.368C53.0671 287.368 53.0671 287.335 53.0344 287.335L53.0017 287.301C52.969 287.267 52.9363 287.234 52.9037 287.234C52.871 287.2 52.8383 287.166 52.8056 287.133C52.7402 287.301 52.6748 287.469 52.6748 287.637C52.6748 287.873 52.7729 288.108 52.9069 288.31L52.9396 288.343C53.3352 288.881 54.195 289.251 55.1235 289.319H55.5877C56.5129 289.251 57.3727 288.915 57.7715 288.343L57.8042 288.31C57.971 288.108 58.0363 287.873 58.0363 287.637C58.0363 287.469 58.0037 287.301 57.9056 287.133C57.8075 287.133 57.7748 287.166 57.7388 287.2H57.7029Z" fill="black"/>
<path d="M55.2537 285.889C56.2802 285.889 57.2054 285.519 57.6664 284.913C57.8331 284.678 57.9312 284.443 57.9312 284.207C57.9312 283.266 56.7412 282.526 55.2537 282.526C53.7662 282.526 52.5762 283.266 52.5762 284.207C52.5762 284.443 52.6742 284.678 52.841 284.913C53.3052 285.519 54.2304 285.889 55.2537 285.889Z" fill="black"/>
<path d="M51.913 285.518C51.8803 285.552 51.8476 285.586 51.8149 285.619L51.7822 285.653C51.7495 285.653 51.7495 285.687 51.7169 285.687C51.6842 285.687 51.6842 285.72 51.6515 285.72C51.6515 285.72 51.6188 285.72 51.6188 285.754C51.5861 285.754 51.5534 285.787 51.5534 285.787C51.488 285.821 51.4226 285.855 51.354 285.888C51.3213 285.888 51.3213 285.922 51.2886 285.922C51.2559 285.922 51.2232 285.956 51.2232 285.956C51.1905 285.956 51.1905 285.989 51.1578 285.989C51.1251 285.989 51.1251 286.023 51.0924 286.023C51.0597 286.023 51.027 286.056 50.9944 286.056C50.9617 286.056 50.9617 286.056 50.929 286.09C50.8963 286.124 50.8309 286.124 50.7982 286.124H50.7655C50.7328 286.124 50.6674 286.157 50.6347 286.157H50.602C50.5694 286.157 50.5367 286.191 50.4713 286.191H50.4386C50.4059 286.191 50.3405 286.225 50.3078 286.225H50.2751C50.2097 286.225 50.177 286.258 50.1084 286.258H48.9184C48.853 286.258 48.7876 286.258 48.7517 286.225C48.6863 286.225 48.6536 286.191 48.5849 286.191H48.5522C48.5195 286.191 48.4542 286.157 48.4215 286.157H48.3888C48.3561 286.157 48.2907 286.124 48.258 286.124H48.2253C48.1599 286.124 48.1272 286.09 48.0586 286.09C48.0368 286.09 48.015 286.079 47.9932 286.056C47.9605 286.056 47.9278 286.023 47.8951 286.023C47.8624 286.023 47.8624 285.989 47.8297 285.989C47.797 285.989 47.797 285.956 47.7644 285.956C47.7317 285.956 47.7317 285.922 47.699 285.922C47.6663 285.922 47.6663 285.888 47.6336 285.888C47.5682 285.855 47.5355 285.821 47.4669 285.787H47.4342C47.4015 285.787 47.3688 285.754 47.3688 285.754C47.3688 285.754 47.3361 285.754 47.3361 285.72C47.3034 285.72 47.3034 285.687 47.2707 285.687C47.238 285.687 47.238 285.653 47.2053 285.653L47.1726 285.619C47.1399 285.586 47.1072 285.552 47.0745 285.552L46.9765 285.451C46.9111 285.619 46.8457 285.787 46.8457 285.956C46.8457 286.191 46.9438 286.426 47.0778 286.628L47.1105 286.662C47.5061 287.2 48.3659 287.57 49.2944 287.637H49.7586C50.6838 287.57 51.5436 287.233 51.9424 286.662L51.9751 286.628C52.1419 286.426 52.2072 286.191 52.2072 285.956C52.2072 285.787 52.1746 285.619 52.0765 285.451C52.0111 285.451 51.9784 285.485 51.9457 285.518H51.913Z" fill="black"/>
<path d="M57.8004 285.417C57.7678 285.451 57.7351 285.485 57.7024 285.518H57.6697C57.637 285.552 57.6043 285.586 57.5716 285.619C57.5389 285.653 57.5062 285.687 57.4735 285.687C57.4408 285.72 57.4081 285.754 57.3428 285.754H57.3101C57.2774 285.787 57.2447 285.787 57.1793 285.821H57.1466C57.1139 285.855 57.0485 285.855 57.0158 285.888H56.9831C56.9504 285.922 56.8851 285.922 56.8524 285.956C56.8197 285.989 56.7543 285.989 56.7216 286.023H56.6889C56.6562 286.023 56.5908 286.056 56.5581 286.056H56.5254C56.4928 286.056 56.4274 286.09 56.3947 286.09H56.362C56.2966 286.09 56.2639 286.124 56.1953 286.124C56.1299 286.124 56.0972 286.157 56.0285 286.157H55.9958C55.9304 286.157 55.8978 286.191 55.8291 286.191H55.7964C55.731 286.191 55.6983 286.191 55.6297 286.225H54.8353C54.7699 286.225 54.7372 286.225 54.6685 286.191H54.6358C54.5704 286.191 54.5378 286.191 54.4691 286.157C54.4037 286.157 54.371 286.124 54.3024 286.124C54.237 286.124 54.2043 286.09 54.1356 286.09H54.1029C54.0376 286.09 54.0049 286.056 53.9722 286.056H53.9395C53.9068 286.056 53.8414 286.023 53.8087 286.023H53.776C53.7433 285.989 53.6779 285.989 53.6453 285.956C53.6126 285.922 53.5472 285.922 53.5145 285.888H53.4818C53.4491 285.855 53.3837 285.855 53.351 285.821H53.3183C53.2856 285.787 53.2529 285.787 53.1876 285.754H53.1549C53.1222 285.72 53.0895 285.72 53.0241 285.687C52.9914 285.653 52.9587 285.619 52.926 285.619C52.8933 285.586 52.8606 285.552 52.8279 285.518H52.7953C52.7626 285.485 52.7299 285.451 52.6972 285.417C52.6318 285.586 52.5664 285.754 52.5664 285.922C52.5664 286.157 52.6645 286.393 52.7985 286.594L52.8312 286.628C53.2268 287.166 54.0866 287.536 55.0151 287.603H55.4793C56.4045 287.536 57.2643 287.2 57.6631 286.628L57.6958 286.594C57.8626 286.393 57.9279 286.157 57.9279 285.922C57.9606 285.72 57.8953 285.552 57.8299 285.417H57.8004Z" fill="black"/>
<path d="M52.0139 280.374C51.9812 280.407 51.9485 280.441 51.9158 280.474C51.8831 280.508 51.8504 280.542 51.8177 280.575C51.785 280.609 51.7524 280.643 51.7197 280.643C51.687 280.676 51.6543 280.71 51.5889 280.71H51.5562C51.5235 280.743 51.4908 280.743 51.4254 280.777H51.3927C51.36 280.811 51.2947 280.811 51.262 280.844H51.2293C51.1966 280.878 51.1312 280.878 51.0985 280.912C51.0658 280.945 51.0004 280.945 50.9677 280.979H50.935C50.9024 281.012 50.837 281.012 50.8043 281.012H50.7716C50.7389 281.012 50.6735 281.046 50.6408 281.046H50.6081C50.5427 281.046 50.51 281.08 50.4414 281.08C50.376 281.08 50.3433 281.113 50.2747 281.113C50.2093 281.113 50.1766 281.147 50.1079 281.147H50.0752C50.0099 281.147 49.9772 281.147 49.9085 281.181H49.1141C49.0487 281.181 49.016 281.181 48.9474 281.147H48.9147C48.8493 281.147 48.8166 281.147 48.7479 281.113C48.6825 281.113 48.6499 281.08 48.5812 281.08C48.5158 281.08 48.4831 281.046 48.4145 281.046H48.3818C48.3164 281.046 48.2837 281.012 48.251 281.012H48.2183C48.1856 281.012 48.1202 280.979 48.0875 280.979H48.0549C48.0222 280.945 47.9568 280.945 47.9241 280.912C47.8914 280.878 47.826 280.878 47.7933 280.844H47.7606C47.7279 280.811 47.6625 280.811 47.6299 280.777H47.5972C47.5645 280.743 47.5318 280.743 47.4664 280.71H47.4337C47.401 280.676 47.3683 280.676 47.3029 280.643C47.2702 280.609 47.2375 280.575 47.2049 280.575C47.1722 280.542 47.1395 280.508 47.1068 280.474C47.0741 280.441 47.0414 280.407 47.0087 280.374C46.9433 280.542 46.8779 280.71 46.8779 280.878C46.8779 281.113 46.976 281.349 47.11 281.551L47.1427 281.584C47.5383 282.122 48.3981 282.492 49.3266 282.559H49.7908C50.716 282.492 51.5758 282.156 51.9747 281.584L52.0074 281.551C52.1741 281.349 52.2395 281.113 52.2395 280.878C52.1741 280.676 52.1087 280.508 52.04 280.374H52.0139Z" fill="black"/>
<path d="M51.913 283.837C51.8803 283.871 51.8476 283.905 51.8149 283.938L51.7822 283.972C51.7495 283.972 51.7495 284.005 51.7169 284.005C51.6842 284.005 51.6842 284.039 51.6515 284.039C51.6515 284.039 51.6188 284.039 51.6188 284.073C51.5861 284.073 51.5534 284.106 51.5534 284.106C51.488 284.14 51.4226 284.174 51.354 284.207C51.3213 284.207 51.3213 284.241 51.2886 284.241C51.2559 284.241 51.2232 284.274 51.2232 284.274C51.1905 284.274 51.1905 284.308 51.1578 284.308C51.1251 284.308 51.1251 284.342 51.0924 284.342C51.0597 284.342 51.027 284.375 50.9944 284.375C50.9617 284.375 50.9617 284.375 50.929 284.409C50.8963 284.443 50.8309 284.443 50.7982 284.443H50.7655C50.7328 284.443 50.6674 284.476 50.6347 284.476H50.602C50.5694 284.476 50.5367 284.51 50.4713 284.51H50.4386C50.4059 284.51 50.3405 284.543 50.3078 284.543H50.2751C50.2097 284.543 50.177 284.577 50.1084 284.577H48.9184C48.853 284.577 48.7876 284.577 48.7517 284.543C48.6863 284.543 48.6536 284.51 48.5849 284.51H48.5522C48.5195 284.51 48.4542 284.476 48.4215 284.476H48.3888C48.3561 284.476 48.2907 284.443 48.258 284.443H48.2253C48.1599 284.443 48.1272 284.409 48.0586 284.409C48.0368 284.409 48.015 284.398 47.9932 284.375C47.9605 284.375 47.9278 284.342 47.8951 284.342C47.8624 284.342 47.8624 284.308 47.8297 284.308C47.797 284.308 47.797 284.274 47.7644 284.274C47.7317 284.274 47.7317 284.241 47.699 284.241C47.6663 284.241 47.6663 284.207 47.6336 284.207C47.5682 284.174 47.5355 284.14 47.4669 284.106H47.4342C47.4015 284.106 47.3688 284.073 47.3688 284.073C47.3688 284.073 47.3361 284.073 47.3361 284.039C47.3034 284.039 47.3034 284.005 47.2707 284.005C47.238 284.005 47.238 283.972 47.2053 283.972L47.1726 283.938C47.1399 283.905 47.1072 283.871 47.0745 283.871L46.9765 283.77C46.9111 283.938 46.8457 284.106 46.8457 284.274C46.8457 284.51 46.9438 284.745 47.0778 284.947L47.1105 284.981C47.5061 285.519 48.3659 285.889 49.2944 285.956H49.7586C50.6838 285.889 51.5436 285.552 51.9424 284.981L51.9751 284.947C52.1419 284.745 52.2072 284.51 52.2072 284.274C52.2072 284.106 52.1746 283.938 52.0765 283.77C52.0111 283.77 51.9784 283.804 51.9457 283.837H51.913Z" fill="black"/>
<path d="M52.3115 286.729C52.3442 286.763 52.3442 286.797 52.3769 286.83C52.4096 286.797 52.4096 286.763 52.4423 286.729C52.4096 286.696 52.4096 286.662 52.3769 286.628C52.3442 286.662 52.3115 286.696 52.3115 286.729Z" fill="black"/>
<path d="M51.913 282.156C51.8803 282.189 51.8476 282.223 51.8149 282.257L51.7822 282.29C51.7495 282.29 51.7495 282.324 51.7169 282.324C51.6842 282.324 51.6842 282.357 51.6515 282.357C51.6515 282.357 51.6188 282.357 51.6188 282.391C51.5861 282.391 51.5534 282.425 51.5534 282.425C51.488 282.458 51.4226 282.492 51.354 282.526C51.3213 282.526 51.3213 282.559 51.2886 282.559C51.2559 282.559 51.2232 282.593 51.2232 282.593C51.1905 282.593 51.1905 282.626 51.1578 282.626C51.1251 282.626 51.1251 282.66 51.0924 282.66C51.0597 282.66 51.027 282.694 50.9944 282.694C50.9617 282.694 50.9617 282.694 50.929 282.727C50.8963 282.761 50.8309 282.761 50.7982 282.761H50.7655C50.7328 282.761 50.6674 282.795 50.6347 282.795H50.602C50.5694 282.795 50.5367 282.828 50.4713 282.828H50.4386C50.4059 282.828 50.3405 282.862 50.3078 282.862H50.2751C50.2097 282.862 50.177 282.895 50.1084 282.895H48.9184C48.853 282.895 48.7876 282.895 48.7517 282.862C48.6863 282.862 48.6536 282.828 48.5849 282.828H48.5522C48.5195 282.828 48.4542 282.795 48.4215 282.795H48.3888C48.3561 282.795 48.2907 282.761 48.258 282.761H48.2253C48.1599 282.761 48.1272 282.727 48.0586 282.727C48.0368 282.727 48.015 282.716 47.9932 282.694C47.9605 282.694 47.9278 282.66 47.8951 282.66C47.8624 282.66 47.8624 282.626 47.8297 282.626C47.797 282.626 47.797 282.593 47.7644 282.593C47.7317 282.593 47.7317 282.559 47.699 282.559C47.6663 282.559 47.6663 282.526 47.6336 282.526C47.5682 282.492 47.5355 282.458 47.4669 282.425H47.4342C47.4015 282.425 47.3688 282.391 47.3688 282.391C47.3688 282.391 47.3361 282.391 47.3361 282.357C47.3034 282.357 47.3034 282.324 47.2707 282.324C47.238 282.324 47.238 282.29 47.2053 282.29L47.1726 282.257C47.1399 282.223 47.1072 282.189 47.0745 282.189L46.9765 282.088C46.9111 282.257 46.8457 282.425 46.8457 282.593C46.8457 282.828 46.9438 283.064 47.0778 283.265L47.1105 283.299C47.5061 283.837 48.3659 284.207 49.2944 284.274H49.7586C50.6838 284.207 51.5436 283.871 51.9424 283.299L51.9751 283.265C52.1419 283.064 52.2072 282.828 52.2072 282.593C52.2072 282.425 52.1746 282.257 52.0765 282.088C52.0111 282.088 51.9784 282.122 51.9457 282.156H51.913Z" fill="black"/>
<path d="M52.3115 288.41C52.3442 288.444 52.3442 288.478 52.3769 288.511C52.4096 288.478 52.4096 288.444 52.4423 288.41C52.4096 288.377 52.4096 288.343 52.3769 288.31C52.3442 288.343 52.3115 288.377 52.3115 288.41Z" fill="black"/>
</g>
<defs>
<linearGradient id="paint0_linear_409_5591" x1="207.5" y1="162" x2="207.5" y2="367" gradientUnits="userSpaceOnUse">
<stop/>
<stop offset="1" stop-color="white"/>
</linearGradient>
<linearGradient id="paint1_linear_409_5591" x1="208.5" y1="100" x2="208.5" y2="429" gradientUnits="userSpaceOnUse">
<stop/>
<stop offset="1" stop-color="white"/>
</linearGradient>
<linearGradient id="paint2_linear_409_5591" x1="207" y1="27" x2="207" y2="481" gradientUnits="userSpaceOnUse">
<stop/>
<stop offset="1" stop-color="white"/>
</linearGradient>
<clipPath id="clip0_409_5591">
<rect width="36" height="32" fill="white" transform="translate(85 122)"/>
</clipPath>
<clipPath id="clip1_409_5591">
<rect width="6" height="6" fill="white" transform="translate(104 122)"/>
</clipPath>
<clipPath id="clip2_409_5591">
<rect width="19" height="22" fill="white" transform="translate(245 165)"/>
</clipPath>
<clipPath id="clip3_409_5591">
<rect width="37" height="37" fill="white" transform="translate(352 78)"/>
</clipPath>
<clipPath id="clip4_409_5591">
<rect width="31" height="29" fill="white" transform="translate(320 331)"/>
</clipPath>
<clipPath id="clip5_409_5591">
<rect width="9.43478" height="9.22727" fill="white" transform="translate(330.782 334.955)"/>
</clipPath>
<clipPath id="clip6_409_5591">
<rect width="37" height="35" fill="white" transform="translate(173 8)"/>
</clipPath>
<clipPath id="clip7_409_5591">
<rect width="17" height="19" fill="white" transform="translate(41 272)"/>
</clipPath>
</defs>
</svg>
