<svg width="20" height="24" viewBox="0 0 20 24" fill="none" xmlns="http://www.w3.org/2000/svg">
<g clip-path="url(#clip0_409_5693)">
<path d="M8.93171 12C8.93168 9.50831 9.91798 7.11787 11.6751 5.35115C13.4322 3.58442 15.8172 2.58506 18.3089 2.57146C16.623 1.50967 14.6834 0.919294 12.6919 0.861817C10.7004 0.804339 8.72986 1.28187 6.98561 2.24466C5.24136 3.20746 3.78714 4.6203 2.77443 6.33606C1.76171 8.05181 1.22754 10.0077 1.22754 12C1.22754 13.9924 1.76171 15.9483 2.77443 17.664C3.78714 19.3798 5.24136 20.7926 6.98561 21.7554C8.72986 22.7182 10.7004 23.1957 12.6919 23.1383C14.6834 23.0808 16.623 22.4904 18.3089 21.4286C15.8172 21.415 13.4322 20.4157 11.6751 18.6489C9.91798 16.8822 8.93168 14.4918 8.93171 12Z" stroke="#E61573" stroke-linecap="round" stroke-linejoin="round"/>
<path d="M18.1203 6.92578L19.6803 10.0286H22.7832L20.4518 12.4286L21.1889 15.8572L18.1203 14.1429L15.1889 15.8572L15.806 12.4286L13.4746 10.0286H16.5775L18.1203 6.92578Z" stroke="#E61573" stroke-linecap="round" stroke-linejoin="round"/>
</g>
<defs>
<clipPath id="clip0_409_5693">
<rect width="24" height="24" fill="white"/>
</clipPath>
</defs>
</svg>
